<mxfile host="app.diagrams.net" modified="2022-02-03T18:08:00.247Z" agent="5.0 (Windows NT 10.0; Win64; x64) AppleWebKit/537.36 (KHTML, like Gecko) Chrome/97.0.4692.99 Safari/537.36" etag="Uh6VP6x1ES5-Orp0mb9M" version="16.5.2" type="github">
  <diagram id="Nz6JuIkfyy5x6KtPPkiP" name="ERD - Basic">
    <mxGraphModel dx="2873" dy="1696" grid="0" gridSize="10" guides="1" tooltips="1" connect="1" arrows="1" fold="1" page="0" pageScale="1" pageWidth="827" pageHeight="1169" background="none" math="0" shadow="0">
      <root>
        <mxCell id="0" />
        <mxCell id="1" parent="0" />
        <mxCell id="p2-XoNAt0ySSqVjpRV2R-21" value="Mandatory&amp;nbsp;&lt;br style=&quot;font-size: 10px;&quot;&gt;Many" style="edgeLabel;html=1;align=center;verticalAlign=middle;resizable=0;points=[];fontStyle=2;fontSize=10;" vertex="1" connectable="0" parent="1">
          <mxGeometry x="2373.9999999999995" y="245.00307692307717" as="geometry">
            <mxPoint x="430" y="-380" as="offset" />
          </mxGeometry>
        </mxCell>
        <mxCell id="p2-XoNAt0ySSqVjpRV2R-19" value="Mandatory&amp;nbsp;&lt;br style=&quot;font-size: 10px;&quot;&gt;Many" style="edgeLabel;html=1;align=center;verticalAlign=middle;resizable=0;points=[];fontStyle=2;fontSize=10;" vertex="1" connectable="0" parent="1">
          <mxGeometry x="2263.9999999999995" y="224.00307692307717" as="geometry">
            <mxPoint x="430" y="-380" as="offset" />
          </mxGeometry>
        </mxCell>
        <mxCell id="p2-XoNAt0ySSqVjpRV2R-18" value="Mandatory&amp;nbsp;&lt;br style=&quot;font-size: 10px;&quot;&gt;One" style="edgeLabel;html=1;align=center;verticalAlign=middle;resizable=0;points=[];fontStyle=2;fontSize=10;" vertex="1" connectable="0" parent="1">
          <mxGeometry x="2982" y="-246.99538461538475" as="geometry" />
        </mxCell>
        <mxCell id="p2-XoNAt0ySSqVjpRV2R-15" value="Optional&lt;br style=&quot;font-size: 10px;&quot;&gt;Many" style="edgeLabel;html=1;align=center;verticalAlign=middle;resizable=0;points=[];fontStyle=2;fontSize=10;" vertex="1" connectable="0" parent="1">
          <mxGeometry x="2987.9999999999995" y="-154.9972727272725" as="geometry" />
        </mxCell>
        <mxCell id="p2-XoNAt0ySSqVjpRV2R-16" value="Optional&lt;br style=&quot;font-size: 10px;&quot;&gt;One" style="edgeLabel;html=1;align=center;verticalAlign=middle;resizable=0;points=[];fontStyle=2;fontSize=10;" vertex="1" connectable="0" parent="1">
          <mxGeometry x="2932.9999999999995" y="-133.9972727272725" as="geometry" />
        </mxCell>
        <mxCell id="p2-XoNAt0ySSqVjpRV2R-13" value="Mandatory&amp;nbsp;&lt;br style=&quot;font-size: 10px;&quot;&gt;One" style="edgeLabel;html=1;align=center;verticalAlign=middle;resizable=0;points=[];fontStyle=2;fontSize=10;" vertex="1" connectable="0" parent="1">
          <mxGeometry x="2933" y="-296.99538461538475" as="geometry" />
        </mxCell>
        <mxCell id="WVVUqtryo7cF9hxDMRjH-439" value="*" style="edgeLabel;html=1;align=center;verticalAlign=middle;resizable=0;points=[];fontSize=12;" parent="1" vertex="1" connectable="0">
          <mxGeometry x="-511.99969072164936" y="2173" as="geometry" />
        </mxCell>
        <mxCell id="WVVUqtryo7cF9hxDMRjH-1" value="PRODUCT LINE" style="shape=table;startSize=30;container=1;collapsible=1;childLayout=tableLayout;fixedRows=1;rowLines=0;fontStyle=1;align=center;resizeLast=1;fillColor=#fa6800;fontColor=#000000;strokeColor=#C73500;gradientColor=#ffffff;" parent="1" vertex="1">
          <mxGeometry x="1365.25" y="18" width="163" height="110" as="geometry">
            <mxRectangle x="234" y="121" width="57" height="30" as="alternateBounds" />
          </mxGeometry>
        </mxCell>
        <mxCell id="WVVUqtryo7cF9hxDMRjH-2" value="" style="shape=tableRow;horizontal=0;startSize=0;swimlaneHead=0;swimlaneBody=0;fillColor=none;collapsible=0;dropTarget=0;points=[[0,0.5],[1,0.5]];portConstraint=eastwest;top=0;left=0;right=0;bottom=1;" parent="WVVUqtryo7cF9hxDMRjH-1" vertex="1">
          <mxGeometry y="30" width="163" height="30" as="geometry" />
        </mxCell>
        <mxCell id="WVVUqtryo7cF9hxDMRjH-3" value="PK" style="shape=partialRectangle;connectable=0;fillColor=none;top=0;left=0;bottom=0;right=0;fontStyle=1;overflow=hidden;" parent="WVVUqtryo7cF9hxDMRjH-2" vertex="1">
          <mxGeometry width="30" height="30" as="geometry">
            <mxRectangle width="30" height="30" as="alternateBounds" />
          </mxGeometry>
        </mxCell>
        <mxCell id="WVVUqtryo7cF9hxDMRjH-4" value="Product Line ID" style="shape=partialRectangle;connectable=0;fillColor=none;top=0;left=0;bottom=0;right=0;align=left;spacingLeft=6;fontStyle=5;overflow=hidden;" parent="WVVUqtryo7cF9hxDMRjH-2" vertex="1">
          <mxGeometry x="30" width="133" height="30" as="geometry">
            <mxRectangle width="133" height="30" as="alternateBounds" />
          </mxGeometry>
        </mxCell>
        <mxCell id="WVVUqtryo7cF9hxDMRjH-5" value="" style="shape=tableRow;horizontal=0;startSize=0;swimlaneHead=0;swimlaneBody=0;fillColor=none;collapsible=0;dropTarget=0;points=[[0,0.5],[1,0.5]];portConstraint=eastwest;top=0;left=0;right=0;bottom=0;" parent="WVVUqtryo7cF9hxDMRjH-1" vertex="1">
          <mxGeometry y="60" width="163" height="30" as="geometry" />
        </mxCell>
        <mxCell id="WVVUqtryo7cF9hxDMRjH-6" value="" style="shape=partialRectangle;connectable=0;fillColor=none;top=0;left=0;bottom=0;right=0;editable=1;overflow=hidden;" parent="WVVUqtryo7cF9hxDMRjH-5" vertex="1">
          <mxGeometry width="30" height="30" as="geometry">
            <mxRectangle width="30" height="30" as="alternateBounds" />
          </mxGeometry>
        </mxCell>
        <mxCell id="WVVUqtryo7cF9hxDMRjH-7" value="Product Line Name" style="shape=partialRectangle;connectable=0;fillColor=none;top=0;left=0;bottom=0;right=0;align=left;spacingLeft=6;overflow=hidden;" parent="WVVUqtryo7cF9hxDMRjH-5" vertex="1">
          <mxGeometry x="30" width="133" height="30" as="geometry">
            <mxRectangle width="133" height="30" as="alternateBounds" />
          </mxGeometry>
        </mxCell>
        <mxCell id="WVVUqtryo7cF9hxDMRjH-8" value="" style="shape=tableRow;horizontal=0;startSize=0;swimlaneHead=0;swimlaneBody=0;fillColor=none;collapsible=0;dropTarget=0;points=[[0,0.5],[1,0.5]];portConstraint=eastwest;top=0;left=0;right=0;bottom=0;" parent="WVVUqtryo7cF9hxDMRjH-1" vertex="1">
          <mxGeometry y="90" width="163" height="20" as="geometry" />
        </mxCell>
        <mxCell id="WVVUqtryo7cF9hxDMRjH-9" value="" style="shape=partialRectangle;connectable=0;fillColor=none;top=0;left=0;bottom=0;right=0;editable=1;overflow=hidden;" parent="WVVUqtryo7cF9hxDMRjH-8" vertex="1">
          <mxGeometry width="30" height="20" as="geometry">
            <mxRectangle width="30" height="20" as="alternateBounds" />
          </mxGeometry>
        </mxCell>
        <mxCell id="WVVUqtryo7cF9hxDMRjH-10" value="" style="shape=partialRectangle;connectable=0;fillColor=none;top=0;left=0;bottom=0;right=0;align=left;spacingLeft=6;overflow=hidden;" parent="WVVUqtryo7cF9hxDMRjH-8" vertex="1">
          <mxGeometry x="30" width="133" height="20" as="geometry">
            <mxRectangle width="133" height="20" as="alternateBounds" />
          </mxGeometry>
        </mxCell>
        <mxCell id="WVVUqtryo7cF9hxDMRjH-14" value="PRODUCT" style="shape=table;startSize=30;container=1;collapsible=1;childLayout=tableLayout;fixedRows=1;rowLines=0;fontStyle=1;align=center;resizeLast=1;fillColor=#fa6800;strokeColor=#C73500;fontColor=#000000;gradientColor=#ffffff;" parent="1" vertex="1">
          <mxGeometry x="1362" y="315" width="169.5" height="135" as="geometry" />
        </mxCell>
        <mxCell id="WVVUqtryo7cF9hxDMRjH-15" value="" style="shape=tableRow;horizontal=0;startSize=0;swimlaneHead=0;swimlaneBody=0;fillColor=none;collapsible=0;dropTarget=0;points=[[0,0.5],[1,0.5]];portConstraint=eastwest;top=0;left=0;right=0;bottom=1;" parent="WVVUqtryo7cF9hxDMRjH-14" vertex="1">
          <mxGeometry y="30" width="169.5" height="25" as="geometry" />
        </mxCell>
        <mxCell id="WVVUqtryo7cF9hxDMRjH-16" value="PK" style="shape=partialRectangle;connectable=0;fillColor=none;top=0;left=0;bottom=0;right=0;fontStyle=1;overflow=hidden;" parent="WVVUqtryo7cF9hxDMRjH-15" vertex="1">
          <mxGeometry width="30" height="25" as="geometry">
            <mxRectangle width="30" height="25" as="alternateBounds" />
          </mxGeometry>
        </mxCell>
        <mxCell id="WVVUqtryo7cF9hxDMRjH-17" value="Product ID" style="shape=partialRectangle;connectable=0;fillColor=none;top=0;left=0;bottom=0;right=0;align=left;spacingLeft=6;fontStyle=5;overflow=hidden;" parent="WVVUqtryo7cF9hxDMRjH-15" vertex="1">
          <mxGeometry x="30" width="139.5" height="25" as="geometry">
            <mxRectangle width="139.5" height="25" as="alternateBounds" />
          </mxGeometry>
        </mxCell>
        <mxCell id="WVVUqtryo7cF9hxDMRjH-18" value="" style="shape=tableRow;horizontal=0;startSize=0;swimlaneHead=0;swimlaneBody=0;fillColor=none;collapsible=0;dropTarget=0;points=[[0,0.5],[1,0.5]];portConstraint=eastwest;top=0;left=0;right=0;bottom=0;" parent="WVVUqtryo7cF9hxDMRjH-14" vertex="1">
          <mxGeometry y="55" width="169.5" height="30" as="geometry" />
        </mxCell>
        <mxCell id="WVVUqtryo7cF9hxDMRjH-19" value="" style="shape=partialRectangle;connectable=0;fillColor=none;top=0;left=0;bottom=0;right=0;editable=1;overflow=hidden;" parent="WVVUqtryo7cF9hxDMRjH-18" vertex="1">
          <mxGeometry width="30" height="30" as="geometry">
            <mxRectangle width="30" height="30" as="alternateBounds" />
          </mxGeometry>
        </mxCell>
        <mxCell id="WVVUqtryo7cF9hxDMRjH-20" value="Product Description" style="shape=partialRectangle;connectable=0;fillColor=none;top=0;left=0;bottom=0;right=0;align=left;spacingLeft=6;overflow=hidden;fontStyle=0" parent="WVVUqtryo7cF9hxDMRjH-18" vertex="1">
          <mxGeometry x="30" width="139.5" height="30" as="geometry">
            <mxRectangle width="139.5" height="30" as="alternateBounds" />
          </mxGeometry>
        </mxCell>
        <mxCell id="WVVUqtryo7cF9hxDMRjH-21" value="" style="shape=tableRow;horizontal=0;startSize=0;swimlaneHead=0;swimlaneBody=0;fillColor=none;collapsible=0;dropTarget=0;points=[[0,0.5],[1,0.5]];portConstraint=eastwest;top=0;left=0;right=0;bottom=0;" parent="WVVUqtryo7cF9hxDMRjH-14" vertex="1">
          <mxGeometry y="85" width="169.5" height="20" as="geometry" />
        </mxCell>
        <mxCell id="WVVUqtryo7cF9hxDMRjH-22" value="" style="shape=partialRectangle;connectable=0;fillColor=none;top=0;left=0;bottom=0;right=0;editable=1;overflow=hidden;" parent="WVVUqtryo7cF9hxDMRjH-21" vertex="1">
          <mxGeometry width="30" height="20" as="geometry">
            <mxRectangle width="30" height="20" as="alternateBounds" />
          </mxGeometry>
        </mxCell>
        <mxCell id="WVVUqtryo7cF9hxDMRjH-23" value="Product Finish" style="shape=partialRectangle;connectable=0;fillColor=none;top=0;left=0;bottom=0;right=0;align=left;spacingLeft=6;overflow=hidden;" parent="WVVUqtryo7cF9hxDMRjH-21" vertex="1">
          <mxGeometry x="30" width="139.5" height="20" as="geometry">
            <mxRectangle width="139.5" height="20" as="alternateBounds" />
          </mxGeometry>
        </mxCell>
        <mxCell id="WVVUqtryo7cF9hxDMRjH-24" value="" style="shape=tableRow;horizontal=0;startSize=0;swimlaneHead=0;swimlaneBody=0;fillColor=none;collapsible=0;dropTarget=0;points=[[0,0.5],[1,0.5]];portConstraint=eastwest;top=0;left=0;right=0;bottom=0;" parent="WVVUqtryo7cF9hxDMRjH-14" vertex="1">
          <mxGeometry y="105" width="169.5" height="30" as="geometry" />
        </mxCell>
        <mxCell id="WVVUqtryo7cF9hxDMRjH-25" value="" style="shape=partialRectangle;connectable=0;fillColor=none;top=0;left=0;bottom=0;right=0;editable=1;overflow=hidden;" parent="WVVUqtryo7cF9hxDMRjH-24" vertex="1">
          <mxGeometry width="30" height="30" as="geometry">
            <mxRectangle width="30" height="30" as="alternateBounds" />
          </mxGeometry>
        </mxCell>
        <mxCell id="WVVUqtryo7cF9hxDMRjH-26" value="Product Standard Price" style="shape=partialRectangle;connectable=0;fillColor=none;top=0;left=0;bottom=0;right=0;align=left;spacingLeft=6;overflow=hidden;" parent="WVVUqtryo7cF9hxDMRjH-24" vertex="1">
          <mxGeometry x="30" width="139.5" height="30" as="geometry">
            <mxRectangle width="139.5" height="30" as="alternateBounds" />
          </mxGeometry>
        </mxCell>
        <mxCell id="WVVUqtryo7cF9hxDMRjH-39" value="" style="edgeStyle=entityRelationEdgeStyle;fontSize=12;html=1;endArrow=ERoneToMany;startArrow=ERmandOne;rounded=0;dashed=1;" parent="1" target="WVVUqtryo7cF9hxDMRjH-14" edge="1">
          <mxGeometry width="100" height="100" relative="1" as="geometry">
            <mxPoint x="1528.25" y="93" as="sourcePoint" />
            <mxPoint x="1510.25" y="92" as="targetPoint" />
          </mxGeometry>
        </mxCell>
        <mxCell id="WVVUqtryo7cF9hxDMRjH-40" value="Mandatory One" style="edgeLabel;html=1;align=center;verticalAlign=middle;resizable=0;points=[];" parent="WVVUqtryo7cF9hxDMRjH-39" vertex="1" connectable="0">
          <mxGeometry x="-0.905" y="-1" relative="1" as="geometry">
            <mxPoint x="27" y="-16" as="offset" />
          </mxGeometry>
        </mxCell>
        <mxCell id="WVVUqtryo7cF9hxDMRjH-41" value="Mandatory Many" style="edgeLabel;html=1;align=center;verticalAlign=middle;resizable=0;points=[];" parent="WVVUqtryo7cF9hxDMRjH-39" vertex="1" connectable="0">
          <mxGeometry x="0.8844" relative="1" as="geometry">
            <mxPoint x="26" y="17" as="offset" />
          </mxGeometry>
        </mxCell>
        <mxCell id="WVVUqtryo7cF9hxDMRjH-43" value="Includes" style="edgeLabel;html=1;align=center;verticalAlign=middle;resizable=0;points=[];rotation=90;" parent="WVVUqtryo7cF9hxDMRjH-39" vertex="1" connectable="0">
          <mxGeometry x="-0.1377" y="2" relative="1" as="geometry">
            <mxPoint x="8" y="18" as="offset" />
          </mxGeometry>
        </mxCell>
        <mxCell id="WVVUqtryo7cF9hxDMRjH-44" value="SKILL" style="shape=table;startSize=30;container=1;collapsible=1;childLayout=tableLayout;fixedRows=1;rowLines=0;fontStyle=1;align=center;resizeLast=1;fillColor=#fa6800;fontColor=#000000;strokeColor=#C73500;gradientColor=#ffffff;gradientDirection=south;" parent="1" vertex="1">
          <mxGeometry x="170" y="134" width="178" height="90" as="geometry" />
        </mxCell>
        <mxCell id="WVVUqtryo7cF9hxDMRjH-45" value="" style="shape=tableRow;horizontal=0;startSize=0;swimlaneHead=0;swimlaneBody=0;fillColor=none;collapsible=0;dropTarget=0;points=[[0,0.5],[1,0.5]];portConstraint=eastwest;top=0;left=0;right=0;bottom=1;" parent="WVVUqtryo7cF9hxDMRjH-44" vertex="1">
          <mxGeometry y="30" width="178" height="30" as="geometry" />
        </mxCell>
        <mxCell id="WVVUqtryo7cF9hxDMRjH-46" value="PK" style="shape=partialRectangle;connectable=0;fillColor=none;top=0;left=0;bottom=0;right=0;fontStyle=1;overflow=hidden;" parent="WVVUqtryo7cF9hxDMRjH-45" vertex="1">
          <mxGeometry width="30" height="30" as="geometry">
            <mxRectangle width="30" height="30" as="alternateBounds" />
          </mxGeometry>
        </mxCell>
        <mxCell id="WVVUqtryo7cF9hxDMRjH-47" value="SKILL" style="shape=partialRectangle;connectable=0;fillColor=none;top=0;left=0;bottom=0;right=0;align=left;spacingLeft=6;fontStyle=5;overflow=hidden;" parent="WVVUqtryo7cF9hxDMRjH-45" vertex="1">
          <mxGeometry x="30" width="148" height="30" as="geometry">
            <mxRectangle width="148" height="30" as="alternateBounds" />
          </mxGeometry>
        </mxCell>
        <mxCell id="WVVUqtryo7cF9hxDMRjH-48" value="" style="shape=tableRow;horizontal=0;startSize=0;swimlaneHead=0;swimlaneBody=0;fillColor=none;collapsible=0;dropTarget=0;points=[[0,0.5],[1,0.5]];portConstraint=eastwest;top=0;left=0;right=0;bottom=0;" parent="WVVUqtryo7cF9hxDMRjH-44" vertex="1">
          <mxGeometry y="60" width="178" height="30" as="geometry" />
        </mxCell>
        <mxCell id="WVVUqtryo7cF9hxDMRjH-49" value="" style="shape=partialRectangle;connectable=0;fillColor=none;top=0;left=0;bottom=0;right=0;editable=1;overflow=hidden;" parent="WVVUqtryo7cF9hxDMRjH-48" vertex="1">
          <mxGeometry width="30" height="30" as="geometry">
            <mxRectangle width="30" height="30" as="alternateBounds" />
          </mxGeometry>
        </mxCell>
        <mxCell id="WVVUqtryo7cF9hxDMRjH-50" value="" style="shape=partialRectangle;connectable=0;fillColor=none;top=0;left=0;bottom=0;right=0;align=left;spacingLeft=6;overflow=hidden;" parent="WVVUqtryo7cF9hxDMRjH-48" vertex="1">
          <mxGeometry x="30" width="148" height="30" as="geometry">
            <mxRectangle width="148" height="30" as="alternateBounds" />
          </mxGeometry>
        </mxCell>
        <mxCell id="WVVUqtryo7cF9hxDMRjH-71" value="EMPLOYEE" style="shape=table;startSize=30;container=1;collapsible=1;childLayout=tableLayout;fixedRows=1;rowLines=0;fontStyle=1;align=center;resizeLast=1;fillColor=#fa6800;fontColor=#000000;strokeColor=#C73500;gradientColor=#ffffff;gradientDirection=south;" parent="1" vertex="1">
          <mxGeometry x="333" y="490" width="181" height="120" as="geometry" />
        </mxCell>
        <mxCell id="WVVUqtryo7cF9hxDMRjH-72" value="" style="shape=tableRow;horizontal=0;startSize=0;swimlaneHead=0;swimlaneBody=0;fillColor=none;collapsible=0;dropTarget=0;points=[[0,0.5],[1,0.5]];portConstraint=eastwest;top=0;left=0;right=0;bottom=1;" parent="WVVUqtryo7cF9hxDMRjH-71" vertex="1">
          <mxGeometry y="30" width="181" height="30" as="geometry" />
        </mxCell>
        <mxCell id="WVVUqtryo7cF9hxDMRjH-73" value="PK" style="shape=partialRectangle;connectable=0;fillColor=none;top=0;left=0;bottom=0;right=0;fontStyle=1;overflow=hidden;" parent="WVVUqtryo7cF9hxDMRjH-72" vertex="1">
          <mxGeometry width="30" height="30" as="geometry">
            <mxRectangle width="30" height="30" as="alternateBounds" />
          </mxGeometry>
        </mxCell>
        <mxCell id="WVVUqtryo7cF9hxDMRjH-74" value="EmployeeID" style="shape=partialRectangle;connectable=0;fillColor=none;top=0;left=0;bottom=0;right=0;align=left;spacingLeft=6;fontStyle=5;overflow=hidden;" parent="WVVUqtryo7cF9hxDMRjH-72" vertex="1">
          <mxGeometry x="30" width="151" height="30" as="geometry">
            <mxRectangle width="151" height="30" as="alternateBounds" />
          </mxGeometry>
        </mxCell>
        <mxCell id="WVVUqtryo7cF9hxDMRjH-75" value="" style="shape=tableRow;horizontal=0;startSize=0;swimlaneHead=0;swimlaneBody=0;fillColor=none;collapsible=0;dropTarget=0;points=[[0,0.5],[1,0.5]];portConstraint=eastwest;top=0;left=0;right=0;bottom=0;" parent="WVVUqtryo7cF9hxDMRjH-71" vertex="1">
          <mxGeometry y="60" width="181" height="30" as="geometry" />
        </mxCell>
        <mxCell id="WVVUqtryo7cF9hxDMRjH-76" value="" style="shape=partialRectangle;connectable=0;fillColor=none;top=0;left=0;bottom=0;right=0;editable=1;overflow=hidden;" parent="WVVUqtryo7cF9hxDMRjH-75" vertex="1">
          <mxGeometry width="30" height="30" as="geometry">
            <mxRectangle width="30" height="30" as="alternateBounds" />
          </mxGeometry>
        </mxCell>
        <mxCell id="WVVUqtryo7cF9hxDMRjH-77" value="Employee Name" style="shape=partialRectangle;connectable=0;fillColor=none;top=0;left=0;bottom=0;right=0;align=left;spacingLeft=6;overflow=hidden;" parent="WVVUqtryo7cF9hxDMRjH-75" vertex="1">
          <mxGeometry x="30" width="151" height="30" as="geometry">
            <mxRectangle width="151" height="30" as="alternateBounds" />
          </mxGeometry>
        </mxCell>
        <mxCell id="WVVUqtryo7cF9hxDMRjH-78" value="" style="shape=tableRow;horizontal=0;startSize=0;swimlaneHead=0;swimlaneBody=0;fillColor=none;collapsible=0;dropTarget=0;points=[[0,0.5],[1,0.5]];portConstraint=eastwest;top=0;left=0;right=0;bottom=0;" parent="WVVUqtryo7cF9hxDMRjH-71" vertex="1">
          <mxGeometry y="90" width="181" height="30" as="geometry" />
        </mxCell>
        <mxCell id="WVVUqtryo7cF9hxDMRjH-79" value="" style="shape=partialRectangle;connectable=0;fillColor=none;top=0;left=0;bottom=0;right=0;editable=1;overflow=hidden;" parent="WVVUqtryo7cF9hxDMRjH-78" vertex="1">
          <mxGeometry width="30" height="30" as="geometry">
            <mxRectangle width="30" height="30" as="alternateBounds" />
          </mxGeometry>
        </mxCell>
        <mxCell id="WVVUqtryo7cF9hxDMRjH-80" value="Employee Address" style="shape=partialRectangle;connectable=0;fillColor=none;top=0;left=0;bottom=0;right=0;align=left;spacingLeft=6;overflow=hidden;" parent="WVVUqtryo7cF9hxDMRjH-78" vertex="1">
          <mxGeometry x="30" width="151" height="30" as="geometry">
            <mxRectangle width="151" height="30" as="alternateBounds" />
          </mxGeometry>
        </mxCell>
        <mxCell id="WVVUqtryo7cF9hxDMRjH-99" value="" style="edgeStyle=orthogonalEdgeStyle;fontSize=12;html=1;endArrow=ERzeroToMany;startArrow=ERzeroToOne;rounded=0;dashed=1;exitX=1;exitY=0.5;exitDx=0;exitDy=0;jumpStyle=line;strokeWidth=1;targetPerimeterSpacing=0;elbow=vertical;entryX=1;entryY=0.5;entryDx=0;entryDy=0;" parent="WVVUqtryo7cF9hxDMRjH-71" source="WVVUqtryo7cF9hxDMRjH-72" target="WVVUqtryo7cF9hxDMRjH-78" edge="1">
          <mxGeometry width="100" height="100" relative="1" as="geometry">
            <mxPoint x="-128" y="17" as="sourcePoint" />
            <mxPoint x="106" y="-74" as="targetPoint" />
            <Array as="points">
              <mxPoint x="287" y="45" />
              <mxPoint x="287" y="105" />
            </Array>
          </mxGeometry>
        </mxCell>
        <mxCell id="WVVUqtryo7cF9hxDMRjH-100" value="Optional One" style="edgeLabel;html=1;align=center;verticalAlign=middle;resizable=0;points=[];" parent="WVVUqtryo7cF9hxDMRjH-99" vertex="1" connectable="0">
          <mxGeometry x="-0.7047" y="-1" relative="1" as="geometry">
            <mxPoint x="14" y="-8" as="offset" />
          </mxGeometry>
        </mxCell>
        <mxCell id="WVVUqtryo7cF9hxDMRjH-101" value="Optional Many" style="edgeLabel;html=1;align=center;verticalAlign=middle;resizable=0;points=[];" parent="WVVUqtryo7cF9hxDMRjH-99" vertex="1" connectable="0">
          <mxGeometry x="0.4867" y="2" relative="1" as="geometry">
            <mxPoint x="-14" y="-9" as="offset" />
          </mxGeometry>
        </mxCell>
        <mxCell id="WVVUqtryo7cF9hxDMRjH-102" value="Unary Relationship" style="edgeLabel;html=1;align=center;verticalAlign=middle;resizable=0;points=[];rotation=90;" parent="WVVUqtryo7cF9hxDMRjH-99" vertex="1" connectable="0">
          <mxGeometry x="-0.0558" relative="1" as="geometry">
            <mxPoint x="11" y="4" as="offset" />
          </mxGeometry>
        </mxCell>
        <mxCell id="WVVUqtryo7cF9hxDMRjH-84" value="" style="edgeStyle=entityRelationEdgeStyle;fontSize=12;html=1;endArrow=ERzeroToMany;startArrow=ERmandOne;rounded=0;dashed=1;exitX=1;exitY=0.5;exitDx=0;exitDy=0;entryX=0;entryY=0.5;entryDx=0;entryDy=0;" parent="1" source="WVVUqtryo7cF9hxDMRjH-45" edge="1">
          <mxGeometry width="100" height="100" relative="1" as="geometry">
            <mxPoint x="469" y="374" as="sourcePoint" />
            <mxPoint x="565" y="179" as="targetPoint" />
          </mxGeometry>
        </mxCell>
        <mxCell id="WVVUqtryo7cF9hxDMRjH-93" value="Mandatory One" style="edgeLabel;html=1;align=center;verticalAlign=middle;resizable=0;points=[];" parent="WVVUqtryo7cF9hxDMRjH-84" vertex="1" connectable="0">
          <mxGeometry x="-0.7953" y="-3" relative="1" as="geometry">
            <mxPoint x="18" y="9" as="offset" />
          </mxGeometry>
        </mxCell>
        <mxCell id="WVVUqtryo7cF9hxDMRjH-95" value="Optional Many" style="edgeLabel;html=1;align=center;verticalAlign=middle;resizable=0;points=[];" parent="WVVUqtryo7cF9hxDMRjH-84" vertex="1" connectable="0">
          <mxGeometry x="0.6142" y="-1" relative="1" as="geometry">
            <mxPoint x="-4" y="-11" as="offset" />
          </mxGeometry>
        </mxCell>
        <mxCell id="WVVUqtryo7cF9hxDMRjH-87" value="" style="edgeStyle=entityRelationEdgeStyle;fontSize=12;html=1;endArrow=ERzeroToMany;startArrow=ERmandOne;rounded=0;dashed=1;" parent="1" edge="1">
          <mxGeometry width="100" height="100" relative="1" as="geometry">
            <mxPoint x="702" y="103" as="sourcePoint" />
            <mxPoint x="654" y="358" as="targetPoint" />
          </mxGeometry>
        </mxCell>
        <mxCell id="WVVUqtryo7cF9hxDMRjH-91" value="Mandatory One&amp;nbsp;" style="edgeLabel;html=1;align=center;verticalAlign=middle;resizable=0;points=[];" parent="WVVUqtryo7cF9hxDMRjH-87" vertex="1" connectable="0">
          <mxGeometry x="-0.8944" relative="1" as="geometry">
            <mxPoint x="20" y="-11" as="offset" />
          </mxGeometry>
        </mxCell>
        <mxCell id="WVVUqtryo7cF9hxDMRjH-92" value="Optional Many" style="edgeLabel;html=1;align=center;verticalAlign=middle;resizable=0;points=[];" parent="WVVUqtryo7cF9hxDMRjH-87" vertex="1" connectable="0">
          <mxGeometry x="0.8259" relative="1" as="geometry">
            <mxPoint x="2" y="-12" as="offset" />
          </mxGeometry>
        </mxCell>
        <mxCell id="WVVUqtryo7cF9hxDMRjH-96" value="HAS SKILL" style="swimlane;childLayout=stackLayout;horizontal=1;startSize=30;horizontalStack=0;rounded=1;fontSize=14;fontStyle=1;strokeWidth=2;resizeParent=0;resizeLast=1;shadow=0;dashed=0;align=center;fillColor=#fa6800;gradientDirection=south;fontColor=#000000;strokeColor=#C73500;gradientColor=#ffffff;" parent="1" vertex="1">
          <mxGeometry x="566" y="136" width="122" height="81" as="geometry" />
        </mxCell>
        <mxCell id="WVVUqtryo7cF9hxDMRjH-103" value="TERRITORY" style="shape=table;startSize=30;container=1;collapsible=1;childLayout=tableLayout;fixedRows=1;rowLines=0;fontStyle=1;align=center;resizeLast=1;fillColor=#fa6800;gradientDirection=south;fontColor=#000000;strokeColor=#C73500;gradientColor=#ffffff;" parent="1" vertex="1">
          <mxGeometry x="1012" y="517" width="174" height="90" as="geometry" />
        </mxCell>
        <mxCell id="WVVUqtryo7cF9hxDMRjH-104" value="" style="shape=tableRow;horizontal=0;startSize=0;swimlaneHead=0;swimlaneBody=0;fillColor=none;collapsible=0;dropTarget=0;points=[[0,0.5],[1,0.5]];portConstraint=eastwest;top=0;left=0;right=0;bottom=1;" parent="WVVUqtryo7cF9hxDMRjH-103" vertex="1">
          <mxGeometry y="30" width="174" height="30" as="geometry" />
        </mxCell>
        <mxCell id="WVVUqtryo7cF9hxDMRjH-105" value="PK" style="shape=partialRectangle;connectable=0;fillColor=none;top=0;left=0;bottom=0;right=0;fontStyle=1;overflow=hidden;" parent="WVVUqtryo7cF9hxDMRjH-104" vertex="1">
          <mxGeometry width="30" height="30" as="geometry">
            <mxRectangle width="30" height="30" as="alternateBounds" />
          </mxGeometry>
        </mxCell>
        <mxCell id="WVVUqtryo7cF9hxDMRjH-106" value="Territory ID" style="shape=partialRectangle;connectable=0;fillColor=none;top=0;left=0;bottom=0;right=0;align=left;spacingLeft=6;fontStyle=5;overflow=hidden;" parent="WVVUqtryo7cF9hxDMRjH-104" vertex="1">
          <mxGeometry x="30" width="144" height="30" as="geometry">
            <mxRectangle width="144" height="30" as="alternateBounds" />
          </mxGeometry>
        </mxCell>
        <mxCell id="WVVUqtryo7cF9hxDMRjH-107" value="" style="shape=tableRow;horizontal=0;startSize=0;swimlaneHead=0;swimlaneBody=0;fillColor=none;collapsible=0;dropTarget=0;points=[[0,0.5],[1,0.5]];portConstraint=eastwest;top=0;left=0;right=0;bottom=0;" parent="WVVUqtryo7cF9hxDMRjH-103" vertex="1">
          <mxGeometry y="60" width="174" height="30" as="geometry" />
        </mxCell>
        <mxCell id="WVVUqtryo7cF9hxDMRjH-108" value="" style="shape=partialRectangle;connectable=0;fillColor=none;top=0;left=0;bottom=0;right=0;editable=1;overflow=hidden;" parent="WVVUqtryo7cF9hxDMRjH-107" vertex="1">
          <mxGeometry width="30" height="30" as="geometry">
            <mxRectangle width="30" height="30" as="alternateBounds" />
          </mxGeometry>
        </mxCell>
        <mxCell id="WVVUqtryo7cF9hxDMRjH-109" value="Territory Name" style="shape=partialRectangle;connectable=0;fillColor=none;top=0;left=0;bottom=0;right=0;align=left;spacingLeft=6;overflow=hidden;" parent="WVVUqtryo7cF9hxDMRjH-107" vertex="1">
          <mxGeometry x="30" width="144" height="30" as="geometry">
            <mxRectangle width="144" height="30" as="alternateBounds" />
          </mxGeometry>
        </mxCell>
        <mxCell id="WVVUqtryo7cF9hxDMRjH-116" value="CUSTOMER" style="shape=table;startSize=30;container=1;collapsible=1;childLayout=tableLayout;fixedRows=1;rowLines=0;fontStyle=1;align=center;resizeLast=1;fillColor=#fa6800;gradientDirection=south;fontColor=#000000;strokeColor=#C73500;gradientColor=#ffffff;" parent="1" vertex="1">
          <mxGeometry x="1347" y="859" width="172" height="150" as="geometry" />
        </mxCell>
        <mxCell id="WVVUqtryo7cF9hxDMRjH-117" value="" style="shape=tableRow;horizontal=0;startSize=0;swimlaneHead=0;swimlaneBody=0;fillColor=none;collapsible=0;dropTarget=0;points=[[0,0.5],[1,0.5]];portConstraint=eastwest;top=0;left=0;right=0;bottom=1;" parent="WVVUqtryo7cF9hxDMRjH-116" vertex="1">
          <mxGeometry y="30" width="172" height="30" as="geometry" />
        </mxCell>
        <mxCell id="WVVUqtryo7cF9hxDMRjH-118" value="PK" style="shape=partialRectangle;connectable=0;fillColor=none;top=0;left=0;bottom=0;right=0;fontStyle=1;overflow=hidden;" parent="WVVUqtryo7cF9hxDMRjH-117" vertex="1">
          <mxGeometry width="30" height="30" as="geometry">
            <mxRectangle width="30" height="30" as="alternateBounds" />
          </mxGeometry>
        </mxCell>
        <mxCell id="WVVUqtryo7cF9hxDMRjH-119" value="Customer ID" style="shape=partialRectangle;connectable=0;fillColor=none;top=0;left=0;bottom=0;right=0;align=left;spacingLeft=6;fontStyle=5;overflow=hidden;" parent="WVVUqtryo7cF9hxDMRjH-117" vertex="1">
          <mxGeometry x="30" width="142" height="30" as="geometry">
            <mxRectangle width="142" height="30" as="alternateBounds" />
          </mxGeometry>
        </mxCell>
        <mxCell id="WVVUqtryo7cF9hxDMRjH-120" value="" style="shape=tableRow;horizontal=0;startSize=0;swimlaneHead=0;swimlaneBody=0;fillColor=none;collapsible=0;dropTarget=0;points=[[0,0.5],[1,0.5]];portConstraint=eastwest;top=0;left=0;right=0;bottom=0;" parent="WVVUqtryo7cF9hxDMRjH-116" vertex="1">
          <mxGeometry y="60" width="172" height="30" as="geometry" />
        </mxCell>
        <mxCell id="WVVUqtryo7cF9hxDMRjH-121" value="" style="shape=partialRectangle;connectable=0;fillColor=none;top=0;left=0;bottom=0;right=0;editable=1;overflow=hidden;" parent="WVVUqtryo7cF9hxDMRjH-120" vertex="1">
          <mxGeometry width="30" height="30" as="geometry">
            <mxRectangle width="30" height="30" as="alternateBounds" />
          </mxGeometry>
        </mxCell>
        <mxCell id="WVVUqtryo7cF9hxDMRjH-122" value="Customer Name" style="shape=partialRectangle;connectable=0;fillColor=none;top=0;left=0;bottom=0;right=0;align=left;spacingLeft=6;overflow=hidden;" parent="WVVUqtryo7cF9hxDMRjH-120" vertex="1">
          <mxGeometry x="30" width="142" height="30" as="geometry">
            <mxRectangle width="142" height="30" as="alternateBounds" />
          </mxGeometry>
        </mxCell>
        <mxCell id="WVVUqtryo7cF9hxDMRjH-123" value="" style="shape=tableRow;horizontal=0;startSize=0;swimlaneHead=0;swimlaneBody=0;fillColor=none;collapsible=0;dropTarget=0;points=[[0,0.5],[1,0.5]];portConstraint=eastwest;top=0;left=0;right=0;bottom=0;" parent="WVVUqtryo7cF9hxDMRjH-116" vertex="1">
          <mxGeometry y="90" width="172" height="30" as="geometry" />
        </mxCell>
        <mxCell id="WVVUqtryo7cF9hxDMRjH-124" value="" style="shape=partialRectangle;connectable=0;fillColor=none;top=0;left=0;bottom=0;right=0;editable=1;overflow=hidden;" parent="WVVUqtryo7cF9hxDMRjH-123" vertex="1">
          <mxGeometry width="30" height="30" as="geometry">
            <mxRectangle width="30" height="30" as="alternateBounds" />
          </mxGeometry>
        </mxCell>
        <mxCell id="WVVUqtryo7cF9hxDMRjH-125" value="Customer Address" style="shape=partialRectangle;connectable=0;fillColor=none;top=0;left=0;bottom=0;right=0;align=left;spacingLeft=6;overflow=hidden;" parent="WVVUqtryo7cF9hxDMRjH-123" vertex="1">
          <mxGeometry x="30" width="142" height="30" as="geometry">
            <mxRectangle width="142" height="30" as="alternateBounds" />
          </mxGeometry>
        </mxCell>
        <mxCell id="WVVUqtryo7cF9hxDMRjH-126" value="" style="shape=tableRow;horizontal=0;startSize=0;swimlaneHead=0;swimlaneBody=0;fillColor=none;collapsible=0;dropTarget=0;points=[[0,0.5],[1,0.5]];portConstraint=eastwest;top=0;left=0;right=0;bottom=0;" parent="WVVUqtryo7cF9hxDMRjH-116" vertex="1">
          <mxGeometry y="120" width="172" height="30" as="geometry" />
        </mxCell>
        <mxCell id="WVVUqtryo7cF9hxDMRjH-127" value="" style="shape=partialRectangle;connectable=0;fillColor=none;top=0;left=0;bottom=0;right=0;editable=1;overflow=hidden;" parent="WVVUqtryo7cF9hxDMRjH-126" vertex="1">
          <mxGeometry width="30" height="30" as="geometry">
            <mxRectangle width="30" height="30" as="alternateBounds" />
          </mxGeometry>
        </mxCell>
        <mxCell id="WVVUqtryo7cF9hxDMRjH-128" value="Customer Postal Code" style="shape=partialRectangle;connectable=0;fillColor=none;top=0;left=0;bottom=0;right=0;align=left;spacingLeft=6;overflow=hidden;" parent="WVVUqtryo7cF9hxDMRjH-126" vertex="1">
          <mxGeometry x="30" width="142" height="30" as="geometry">
            <mxRectangle width="142" height="30" as="alternateBounds" />
          </mxGeometry>
        </mxCell>
        <mxCell id="WVVUqtryo7cF9hxDMRjH-129" value="DOES BUSINESS IN" style="swimlane;childLayout=stackLayout;horizontal=1;startSize=30;horizontalStack=0;rounded=1;fontSize=14;fontStyle=1;strokeWidth=1;resizeParent=0;resizeLast=1;shadow=0;dashed=0;align=center;fillColor=#fa6800;gradientDirection=south;fontColor=#000000;strokeColor=#C73500;gradientColor=#ffffff;" parent="1" vertex="1">
          <mxGeometry x="1354" y="648" width="151" height="70" as="geometry" />
        </mxCell>
        <mxCell id="WVVUqtryo7cF9hxDMRjH-131" value="" style="edgeStyle=entityRelationEdgeStyle;fontSize=12;html=1;endArrow=ERoneToMany;startArrow=ERmandOne;rounded=0;targetPerimeterSpacing=0;strokeWidth=1;elbow=vertical;jumpStyle=line;exitX=1;exitY=0.5;exitDx=0;exitDy=0;entryX=0;entryY=0.25;entryDx=0;entryDy=0;" parent="1" source="WVVUqtryo7cF9hxDMRjH-104" edge="1">
          <mxGeometry width="100" height="100" relative="1" as="geometry">
            <mxPoint x="1190" y="792" as="sourcePoint" />
            <mxPoint x="1354" y="694.25" as="targetPoint" />
          </mxGeometry>
        </mxCell>
        <mxCell id="WVVUqtryo7cF9hxDMRjH-133" value="Mandatory One" style="edgeLabel;html=1;align=center;verticalAlign=middle;resizable=0;points=[];" parent="WVVUqtryo7cF9hxDMRjH-131" vertex="1" connectable="0">
          <mxGeometry x="-0.8183" relative="1" as="geometry">
            <mxPoint x="19" y="15" as="offset" />
          </mxGeometry>
        </mxCell>
        <mxCell id="WVVUqtryo7cF9hxDMRjH-135" value="Mandatory Many" style="edgeLabel;html=1;align=center;verticalAlign=middle;resizable=0;points=[];" parent="WVVUqtryo7cF9hxDMRjH-131" vertex="1" connectable="0">
          <mxGeometry x="0.6375" y="2" relative="1" as="geometry">
            <mxPoint x="-10" y="-10" as="offset" />
          </mxGeometry>
        </mxCell>
        <mxCell id="WVVUqtryo7cF9hxDMRjH-137" value="Fixed Entity" style="edgeLabel;html=1;align=center;verticalAlign=middle;resizable=0;points=[];" parent="WVVUqtryo7cF9hxDMRjH-131" vertex="1" connectable="0">
          <mxGeometry x="-0.4477" y="-4" relative="1" as="geometry">
            <mxPoint x="-137" y="-83" as="offset" />
          </mxGeometry>
        </mxCell>
        <mxCell id="WVVUqtryo7cF9hxDMRjH-132" value="" style="fontSize=12;html=1;endArrow=ERmandOne;startArrow=ERzeroToMany;rounded=0;strokeWidth=1;elbow=vertical;jumpStyle=line;entryX=0.432;entryY=0.003;entryDx=0;entryDy=0;entryPerimeter=0;sourcePerimeterSpacing=0;endFill=0;" parent="1" target="WVVUqtryo7cF9hxDMRjH-116" edge="1">
          <mxGeometry width="100" height="100" relative="1" as="geometry">
            <mxPoint x="1420" y="718" as="sourcePoint" />
            <mxPoint x="1294" y="850" as="targetPoint" />
          </mxGeometry>
        </mxCell>
        <mxCell id="WVVUqtryo7cF9hxDMRjH-136" value="Optional Many" style="edgeLabel;html=1;align=center;verticalAlign=middle;resizable=0;points=[];" parent="WVVUqtryo7cF9hxDMRjH-132" vertex="1" connectable="0">
          <mxGeometry x="-0.7058" y="-2" relative="1" as="geometry">
            <mxPoint x="44" y="-6" as="offset" />
          </mxGeometry>
        </mxCell>
        <mxCell id="WVVUqtryo7cF9hxDMRjH-134" value="Mandatory One" style="edgeLabel;html=1;align=center;verticalAlign=middle;resizable=0;points=[];" parent="1" vertex="1" connectable="0">
          <mxGeometry x="1468.0003448275866" y="851" as="geometry" />
        </mxCell>
        <mxCell id="WVVUqtryo7cF9hxDMRjH-138" value="Fixed Entity" style="edgeLabel;html=1;align=center;verticalAlign=middle;resizable=0;points=[];" parent="1" vertex="1" connectable="0">
          <mxGeometry x="1435.9973536800917" y="1020.0047225886528" as="geometry" />
        </mxCell>
        <mxCell id="WVVUqtryo7cF9hxDMRjH-139" value="Associative Entity" style="edgeLabel;html=1;align=center;verticalAlign=middle;resizable=0;points=[];" parent="1" vertex="1" connectable="0">
          <mxGeometry x="1422.9973536800917" y="635.0047225886528" as="geometry" />
        </mxCell>
        <mxCell id="WVVUqtryo7cF9hxDMRjH-140" value="VENDOR" style="shape=table;startSize=30;container=1;collapsible=1;childLayout=tableLayout;fixedRows=1;rowLines=0;fontStyle=1;align=center;resizeLast=1;strokeWidth=1;fillColor=#fa6800;gradientDirection=south;fontColor=#000000;strokeColor=#C73500;gradientColor=#ffffff;" parent="1" vertex="1">
          <mxGeometry x="358" y="771" width="178" height="120" as="geometry" />
        </mxCell>
        <mxCell id="WVVUqtryo7cF9hxDMRjH-141" value="" style="shape=tableRow;horizontal=0;startSize=0;swimlaneHead=0;swimlaneBody=0;fillColor=none;collapsible=0;dropTarget=0;points=[[0,0.5],[1,0.5]];portConstraint=eastwest;top=0;left=0;right=0;bottom=1;strokeWidth=1;" parent="WVVUqtryo7cF9hxDMRjH-140" vertex="1">
          <mxGeometry y="30" width="178" height="30" as="geometry" />
        </mxCell>
        <mxCell id="WVVUqtryo7cF9hxDMRjH-142" value="PK" style="shape=partialRectangle;connectable=0;fillColor=none;top=0;left=0;bottom=0;right=0;fontStyle=1;overflow=hidden;strokeWidth=1;" parent="WVVUqtryo7cF9hxDMRjH-141" vertex="1">
          <mxGeometry width="30" height="30" as="geometry">
            <mxRectangle width="30" height="30" as="alternateBounds" />
          </mxGeometry>
        </mxCell>
        <mxCell id="WVVUqtryo7cF9hxDMRjH-143" value="Vendor ID" style="shape=partialRectangle;connectable=0;fillColor=none;top=0;left=0;bottom=0;right=0;align=left;spacingLeft=6;fontStyle=5;overflow=hidden;strokeWidth=1;" parent="WVVUqtryo7cF9hxDMRjH-141" vertex="1">
          <mxGeometry x="30" width="148" height="30" as="geometry">
            <mxRectangle width="148" height="30" as="alternateBounds" />
          </mxGeometry>
        </mxCell>
        <mxCell id="WVVUqtryo7cF9hxDMRjH-144" value="" style="shape=tableRow;horizontal=0;startSize=0;swimlaneHead=0;swimlaneBody=0;fillColor=none;collapsible=0;dropTarget=0;points=[[0,0.5],[1,0.5]];portConstraint=eastwest;top=0;left=0;right=0;bottom=0;strokeWidth=1;" parent="WVVUqtryo7cF9hxDMRjH-140" vertex="1">
          <mxGeometry y="60" width="178" height="30" as="geometry" />
        </mxCell>
        <mxCell id="WVVUqtryo7cF9hxDMRjH-145" value="" style="shape=partialRectangle;connectable=0;fillColor=none;top=0;left=0;bottom=0;right=0;editable=1;overflow=hidden;strokeWidth=1;" parent="WVVUqtryo7cF9hxDMRjH-144" vertex="1">
          <mxGeometry width="30" height="30" as="geometry">
            <mxRectangle width="30" height="30" as="alternateBounds" />
          </mxGeometry>
        </mxCell>
        <mxCell id="WVVUqtryo7cF9hxDMRjH-146" value="Vendor Name" style="shape=partialRectangle;connectable=0;fillColor=none;top=0;left=0;bottom=0;right=0;align=left;spacingLeft=6;overflow=hidden;strokeWidth=1;" parent="WVVUqtryo7cF9hxDMRjH-144" vertex="1">
          <mxGeometry x="30" width="148" height="30" as="geometry">
            <mxRectangle width="148" height="30" as="alternateBounds" />
          </mxGeometry>
        </mxCell>
        <mxCell id="WVVUqtryo7cF9hxDMRjH-147" value="" style="shape=tableRow;horizontal=0;startSize=0;swimlaneHead=0;swimlaneBody=0;fillColor=none;collapsible=0;dropTarget=0;points=[[0,0.5],[1,0.5]];portConstraint=eastwest;top=0;left=0;right=0;bottom=0;strokeWidth=1;" parent="WVVUqtryo7cF9hxDMRjH-140" vertex="1">
          <mxGeometry y="90" width="178" height="30" as="geometry" />
        </mxCell>
        <mxCell id="WVVUqtryo7cF9hxDMRjH-148" value="" style="shape=partialRectangle;connectable=0;fillColor=none;top=0;left=0;bottom=0;right=0;editable=1;overflow=hidden;strokeWidth=1;" parent="WVVUqtryo7cF9hxDMRjH-147" vertex="1">
          <mxGeometry width="30" height="30" as="geometry">
            <mxRectangle width="30" height="30" as="alternateBounds" />
          </mxGeometry>
        </mxCell>
        <mxCell id="WVVUqtryo7cF9hxDMRjH-149" value="Vendor Address" style="shape=partialRectangle;connectable=0;fillColor=none;top=0;left=0;bottom=0;right=0;align=left;spacingLeft=6;overflow=hidden;strokeWidth=1;" parent="WVVUqtryo7cF9hxDMRjH-147" vertex="1">
          <mxGeometry x="30" width="148" height="30" as="geometry">
            <mxRectangle width="148" height="30" as="alternateBounds" />
          </mxGeometry>
        </mxCell>
        <mxCell id="WVVUqtryo7cF9hxDMRjH-153" value="RAW MATERIAL" style="shape=table;startSize=30;container=1;collapsible=1;childLayout=tableLayout;fixedRows=1;rowLines=0;fontStyle=1;align=center;resizeLast=1;strokeWidth=1;fillColor=#fa6800;gradientDirection=south;fontColor=#000000;strokeColor=#C73500;gradientColor=#ffffff;" parent="1" vertex="1">
          <mxGeometry x="772" y="967" width="176" height="150" as="geometry" />
        </mxCell>
        <mxCell id="WVVUqtryo7cF9hxDMRjH-154" value="" style="shape=tableRow;horizontal=0;startSize=0;swimlaneHead=0;swimlaneBody=0;fillColor=none;collapsible=0;dropTarget=0;points=[[0,0.5],[1,0.5]];portConstraint=eastwest;top=0;left=0;right=0;bottom=1;strokeWidth=1;" parent="WVVUqtryo7cF9hxDMRjH-153" vertex="1">
          <mxGeometry y="30" width="176" height="30" as="geometry" />
        </mxCell>
        <mxCell id="WVVUqtryo7cF9hxDMRjH-155" value="PK" style="shape=partialRectangle;connectable=0;fillColor=none;top=0;left=0;bottom=0;right=0;fontStyle=1;overflow=hidden;strokeWidth=1;" parent="WVVUqtryo7cF9hxDMRjH-154" vertex="1">
          <mxGeometry width="30" height="30" as="geometry">
            <mxRectangle width="30" height="30" as="alternateBounds" />
          </mxGeometry>
        </mxCell>
        <mxCell id="WVVUqtryo7cF9hxDMRjH-156" value="Material ID" style="shape=partialRectangle;connectable=0;fillColor=none;top=0;left=0;bottom=0;right=0;align=left;spacingLeft=6;fontStyle=5;overflow=hidden;strokeWidth=1;" parent="WVVUqtryo7cF9hxDMRjH-154" vertex="1">
          <mxGeometry x="30" width="146" height="30" as="geometry">
            <mxRectangle width="146" height="30" as="alternateBounds" />
          </mxGeometry>
        </mxCell>
        <mxCell id="WVVUqtryo7cF9hxDMRjH-157" value="" style="shape=tableRow;horizontal=0;startSize=0;swimlaneHead=0;swimlaneBody=0;fillColor=none;collapsible=0;dropTarget=0;points=[[0,0.5],[1,0.5]];portConstraint=eastwest;top=0;left=0;right=0;bottom=0;strokeWidth=1;" parent="WVVUqtryo7cF9hxDMRjH-153" vertex="1">
          <mxGeometry y="60" width="176" height="30" as="geometry" />
        </mxCell>
        <mxCell id="WVVUqtryo7cF9hxDMRjH-158" value="" style="shape=partialRectangle;connectable=0;fillColor=none;top=0;left=0;bottom=0;right=0;editable=1;overflow=hidden;strokeWidth=1;" parent="WVVUqtryo7cF9hxDMRjH-157" vertex="1">
          <mxGeometry width="30" height="30" as="geometry">
            <mxRectangle width="30" height="30" as="alternateBounds" />
          </mxGeometry>
        </mxCell>
        <mxCell id="WVVUqtryo7cF9hxDMRjH-159" value="Material Name" style="shape=partialRectangle;connectable=0;fillColor=none;top=0;left=0;bottom=0;right=0;align=left;spacingLeft=6;overflow=hidden;strokeWidth=1;" parent="WVVUqtryo7cF9hxDMRjH-157" vertex="1">
          <mxGeometry x="30" width="146" height="30" as="geometry">
            <mxRectangle width="146" height="30" as="alternateBounds" />
          </mxGeometry>
        </mxCell>
        <mxCell id="WVVUqtryo7cF9hxDMRjH-160" value="" style="shape=tableRow;horizontal=0;startSize=0;swimlaneHead=0;swimlaneBody=0;fillColor=none;collapsible=0;dropTarget=0;points=[[0,0.5],[1,0.5]];portConstraint=eastwest;top=0;left=0;right=0;bottom=0;strokeWidth=1;" parent="WVVUqtryo7cF9hxDMRjH-153" vertex="1">
          <mxGeometry y="90" width="176" height="30" as="geometry" />
        </mxCell>
        <mxCell id="WVVUqtryo7cF9hxDMRjH-161" value="" style="shape=partialRectangle;connectable=0;fillColor=none;top=0;left=0;bottom=0;right=0;editable=1;overflow=hidden;strokeWidth=1;" parent="WVVUqtryo7cF9hxDMRjH-160" vertex="1">
          <mxGeometry width="30" height="30" as="geometry">
            <mxRectangle width="30" height="30" as="alternateBounds" />
          </mxGeometry>
        </mxCell>
        <mxCell id="WVVUqtryo7cF9hxDMRjH-162" value="Material Standard Cost" style="shape=partialRectangle;connectable=0;fillColor=none;top=0;left=0;bottom=0;right=0;align=left;spacingLeft=6;overflow=hidden;strokeWidth=1;" parent="WVVUqtryo7cF9hxDMRjH-160" vertex="1">
          <mxGeometry x="30" width="146" height="30" as="geometry">
            <mxRectangle width="146" height="30" as="alternateBounds" />
          </mxGeometry>
        </mxCell>
        <mxCell id="WVVUqtryo7cF9hxDMRjH-163" value="" style="shape=tableRow;horizontal=0;startSize=0;swimlaneHead=0;swimlaneBody=0;fillColor=none;collapsible=0;dropTarget=0;points=[[0,0.5],[1,0.5]];portConstraint=eastwest;top=0;left=0;right=0;bottom=0;strokeWidth=1;" parent="WVVUqtryo7cF9hxDMRjH-153" vertex="1">
          <mxGeometry y="120" width="176" height="30" as="geometry" />
        </mxCell>
        <mxCell id="WVVUqtryo7cF9hxDMRjH-164" value="" style="shape=partialRectangle;connectable=0;fillColor=none;top=0;left=0;bottom=0;right=0;editable=1;overflow=hidden;strokeWidth=1;" parent="WVVUqtryo7cF9hxDMRjH-163" vertex="1">
          <mxGeometry width="30" height="30" as="geometry">
            <mxRectangle width="30" height="30" as="alternateBounds" />
          </mxGeometry>
        </mxCell>
        <mxCell id="WVVUqtryo7cF9hxDMRjH-165" value="Unit of Measure" style="shape=partialRectangle;connectable=0;fillColor=none;top=0;left=0;bottom=0;right=0;align=left;spacingLeft=6;overflow=hidden;strokeWidth=1;" parent="WVVUqtryo7cF9hxDMRjH-163" vertex="1">
          <mxGeometry x="30" width="146" height="30" as="geometry">
            <mxRectangle width="146" height="30" as="alternateBounds" />
          </mxGeometry>
        </mxCell>
        <mxCell id="WVVUqtryo7cF9hxDMRjH-166" value="SUPPLIES" style="swimlane;childLayout=stackLayout;horizontal=1;startSize=30;horizontalStack=0;rounded=1;fontSize=14;fontStyle=0;strokeWidth=1;resizeParent=0;resizeLast=1;shadow=0;dashed=0;align=center;fillColor=#fa6800;gradientDirection=south;fontColor=#000000;strokeColor=#C73500;gradientColor=#ffffff;" parent="1" vertex="1">
          <mxGeometry x="363" y="978" width="160" height="120" as="geometry" />
        </mxCell>
        <mxCell id="WVVUqtryo7cF9hxDMRjH-167" value="Supply Unit Price" style="align=left;strokeColor=none;fillColor=none;spacingLeft=4;fontSize=12;verticalAlign=top;resizable=0;rotatable=0;part=1;" parent="WVVUqtryo7cF9hxDMRjH-166" vertex="1">
          <mxGeometry y="30" width="160" height="90" as="geometry" />
        </mxCell>
        <mxCell id="WVVUqtryo7cF9hxDMRjH-168" value="" style="edgeStyle=entityRelationEdgeStyle;fontSize=12;html=1;endArrow=ERmandOne;endFill=0;rounded=0;targetPerimeterSpacing=0;strokeWidth=1;elbow=vertical;jumpStyle=line;exitX=1.005;exitY=0.074;exitDx=0;exitDy=0;exitPerimeter=0;entryX=0;entryY=0.5;entryDx=0;entryDy=0;startArrow=ERoneToMany;startFill=0;" parent="1" source="WVVUqtryo7cF9hxDMRjH-167" target="WVVUqtryo7cF9hxDMRjH-154" edge="1">
          <mxGeometry width="100" height="100" relative="1" as="geometry">
            <mxPoint x="593" y="1092" as="sourcePoint" />
            <mxPoint x="693" y="992" as="targetPoint" />
          </mxGeometry>
        </mxCell>
        <mxCell id="WVVUqtryo7cF9hxDMRjH-172" value="Associative Entity" style="edgeLabel;html=1;align=center;verticalAlign=middle;resizable=0;points=[];" parent="WVVUqtryo7cF9hxDMRjH-168" vertex="1" connectable="0">
          <mxGeometry x="-0.7818" y="1" relative="1" as="geometry">
            <mxPoint x="-122" y="95" as="offset" />
          </mxGeometry>
        </mxCell>
        <mxCell id="WVVUqtryo7cF9hxDMRjH-173" value="Mandatory&lt;br&gt;Many" style="edgeLabel;html=1;align=center;verticalAlign=middle;resizable=0;points=[];" parent="WVVUqtryo7cF9hxDMRjH-168" vertex="1" connectable="0">
          <mxGeometry x="-0.8093" relative="1" as="geometry">
            <mxPoint x="3" y="20" as="offset" />
          </mxGeometry>
        </mxCell>
        <mxCell id="WVVUqtryo7cF9hxDMRjH-174" value="Mandatory&amp;nbsp;&lt;br&gt;One" style="edgeLabel;html=1;align=center;verticalAlign=middle;resizable=0;points=[];" parent="WVVUqtryo7cF9hxDMRjH-168" vertex="1" connectable="0">
          <mxGeometry x="0.8416" relative="1" as="geometry">
            <mxPoint x="-20" y="-15" as="offset" />
          </mxGeometry>
        </mxCell>
        <mxCell id="WVVUqtryo7cF9hxDMRjH-176" value="Fixed Entity" style="edgeLabel;html=1;align=center;verticalAlign=middle;resizable=0;points=[];" parent="WVVUqtryo7cF9hxDMRjH-168" vertex="1" connectable="0">
          <mxGeometry x="0.0164" y="2" relative="1" as="geometry">
            <mxPoint x="266" y="-57" as="offset" />
          </mxGeometry>
        </mxCell>
        <mxCell id="WVVUqtryo7cF9hxDMRjH-169" value="" style="fontSize=12;html=1;endArrow=ERmandOne;endFill=0;rounded=0;targetPerimeterSpacing=0;strokeWidth=1;jumpStyle=line;exitX=0.6;exitY=0.007;exitDx=0;exitDy=0;exitPerimeter=0;edgeStyle=orthogonalEdgeStyle;startArrow=ERzeroToMany;startFill=0;" parent="1" source="WVVUqtryo7cF9hxDMRjH-166" target="WVVUqtryo7cF9hxDMRjH-147" edge="1">
          <mxGeometry width="100" height="100" relative="1" as="geometry">
            <mxPoint x="447" y="971" as="sourcePoint" />
            <mxPoint x="727" y="855" as="targetPoint" />
            <Array as="points">
              <mxPoint x="459" y="934" />
              <mxPoint x="327" y="934" />
              <mxPoint x="327" y="876" />
            </Array>
          </mxGeometry>
        </mxCell>
        <mxCell id="WVVUqtryo7cF9hxDMRjH-170" value="Mandatory&amp;nbsp;&lt;br&gt;One" style="edgeLabel;html=1;align=center;verticalAlign=middle;resizable=0;points=[];" parent="WVVUqtryo7cF9hxDMRjH-169" vertex="1" connectable="0">
          <mxGeometry x="0.8378" relative="1" as="geometry">
            <mxPoint x="-12" y="-18" as="offset" />
          </mxGeometry>
        </mxCell>
        <mxCell id="WVVUqtryo7cF9hxDMRjH-171" value="Optional&amp;nbsp;&lt;br&gt;Many" style="edgeLabel;html=1;align=center;verticalAlign=middle;resizable=0;points=[];" parent="WVVUqtryo7cF9hxDMRjH-169" vertex="1" connectable="0">
          <mxGeometry x="-0.735" y="-2" relative="1" as="geometry">
            <mxPoint x="25" y="5" as="offset" />
          </mxGeometry>
        </mxCell>
        <mxCell id="WVVUqtryo7cF9hxDMRjH-175" value="Fixed Entity" style="edgeLabel;html=1;align=center;verticalAlign=middle;resizable=0;points=[];" parent="WVVUqtryo7cF9hxDMRjH-169" vertex="1" connectable="0">
          <mxGeometry x="0.0404" y="2" relative="1" as="geometry">
            <mxPoint x="131" y="-177" as="offset" />
          </mxGeometry>
        </mxCell>
        <mxCell id="WVVUqtryo7cF9hxDMRjH-177" value="CUSTOMER" style="shape=table;startSize=30;container=1;collapsible=1;childLayout=tableLayout;fixedRows=1;rowLines=0;fontStyle=1;align=center;resizeLast=1;strokeWidth=1;fillColor=#fa6800;gradientDirection=south;fontColor=#000000;strokeColor=#C73500;gradientColor=#ffffff;" parent="1" vertex="1">
          <mxGeometry x="1951" y="240" width="182" height="152" as="geometry" />
        </mxCell>
        <mxCell id="WVVUqtryo7cF9hxDMRjH-178" value="" style="shape=tableRow;horizontal=0;startSize=0;swimlaneHead=0;swimlaneBody=0;fillColor=none;collapsible=0;dropTarget=0;points=[[0,0.5],[1,0.5]];portConstraint=eastwest;top=0;left=0;right=0;bottom=1;strokeWidth=1;" parent="WVVUqtryo7cF9hxDMRjH-177" vertex="1">
          <mxGeometry y="30" width="182" height="32" as="geometry" />
        </mxCell>
        <mxCell id="WVVUqtryo7cF9hxDMRjH-179" value="PK" style="shape=partialRectangle;connectable=0;fillColor=none;top=0;left=0;bottom=0;right=0;fontStyle=1;overflow=hidden;strokeWidth=1;" parent="WVVUqtryo7cF9hxDMRjH-178" vertex="1">
          <mxGeometry width="30" height="32" as="geometry">
            <mxRectangle width="30" height="32" as="alternateBounds" />
          </mxGeometry>
        </mxCell>
        <mxCell id="WVVUqtryo7cF9hxDMRjH-180" value="Customer ID" style="shape=partialRectangle;connectable=0;fillColor=none;top=0;left=0;bottom=0;right=0;align=left;spacingLeft=6;fontStyle=5;overflow=hidden;strokeWidth=1;" parent="WVVUqtryo7cF9hxDMRjH-178" vertex="1">
          <mxGeometry x="30" width="152" height="32" as="geometry">
            <mxRectangle width="152" height="32" as="alternateBounds" />
          </mxGeometry>
        </mxCell>
        <mxCell id="WVVUqtryo7cF9hxDMRjH-181" value="" style="shape=tableRow;horizontal=0;startSize=0;swimlaneHead=0;swimlaneBody=0;fillColor=none;collapsible=0;dropTarget=0;points=[[0,0.5],[1,0.5]];portConstraint=eastwest;top=0;left=0;right=0;bottom=0;strokeWidth=1;" parent="WVVUqtryo7cF9hxDMRjH-177" vertex="1">
          <mxGeometry y="62" width="182" height="30" as="geometry" />
        </mxCell>
        <mxCell id="WVVUqtryo7cF9hxDMRjH-182" value="" style="shape=partialRectangle;connectable=0;fillColor=none;top=0;left=0;bottom=0;right=0;editable=1;overflow=hidden;strokeWidth=1;" parent="WVVUqtryo7cF9hxDMRjH-181" vertex="1">
          <mxGeometry width="30" height="30" as="geometry">
            <mxRectangle width="30" height="30" as="alternateBounds" />
          </mxGeometry>
        </mxCell>
        <mxCell id="WVVUqtryo7cF9hxDMRjH-183" value="Customer Name" style="shape=partialRectangle;connectable=0;fillColor=none;top=0;left=0;bottom=0;right=0;align=left;spacingLeft=6;overflow=hidden;strokeWidth=1;" parent="WVVUqtryo7cF9hxDMRjH-181" vertex="1">
          <mxGeometry x="30" width="152" height="30" as="geometry">
            <mxRectangle width="152" height="30" as="alternateBounds" />
          </mxGeometry>
        </mxCell>
        <mxCell id="WVVUqtryo7cF9hxDMRjH-184" value="" style="shape=tableRow;horizontal=0;startSize=0;swimlaneHead=0;swimlaneBody=0;fillColor=none;collapsible=0;dropTarget=0;points=[[0,0.5],[1,0.5]];portConstraint=eastwest;top=0;left=0;right=0;bottom=0;strokeWidth=1;" parent="WVVUqtryo7cF9hxDMRjH-177" vertex="1">
          <mxGeometry y="92" width="182" height="30" as="geometry" />
        </mxCell>
        <mxCell id="WVVUqtryo7cF9hxDMRjH-185" value="" style="shape=partialRectangle;connectable=0;fillColor=none;top=0;left=0;bottom=0;right=0;editable=1;overflow=hidden;strokeWidth=1;" parent="WVVUqtryo7cF9hxDMRjH-184" vertex="1">
          <mxGeometry width="30" height="30" as="geometry">
            <mxRectangle width="30" height="30" as="alternateBounds" />
          </mxGeometry>
        </mxCell>
        <mxCell id="WVVUqtryo7cF9hxDMRjH-186" value="Customer Address" style="shape=partialRectangle;connectable=0;fillColor=none;top=0;left=0;bottom=0;right=0;align=left;spacingLeft=6;overflow=hidden;strokeWidth=1;" parent="WVVUqtryo7cF9hxDMRjH-184" vertex="1">
          <mxGeometry x="30" width="152" height="30" as="geometry">
            <mxRectangle width="152" height="30" as="alternateBounds" />
          </mxGeometry>
        </mxCell>
        <mxCell id="WVVUqtryo7cF9hxDMRjH-187" value="" style="shape=tableRow;horizontal=0;startSize=0;swimlaneHead=0;swimlaneBody=0;fillColor=none;collapsible=0;dropTarget=0;points=[[0,0.5],[1,0.5]];portConstraint=eastwest;top=0;left=0;right=0;bottom=0;strokeWidth=1;" parent="WVVUqtryo7cF9hxDMRjH-177" vertex="1">
          <mxGeometry y="122" width="182" height="30" as="geometry" />
        </mxCell>
        <mxCell id="WVVUqtryo7cF9hxDMRjH-188" value="" style="shape=partialRectangle;connectable=0;fillColor=none;top=0;left=0;bottom=0;right=0;editable=1;overflow=hidden;strokeWidth=1;" parent="WVVUqtryo7cF9hxDMRjH-187" vertex="1">
          <mxGeometry width="30" height="30" as="geometry">
            <mxRectangle width="30" height="30" as="alternateBounds" />
          </mxGeometry>
        </mxCell>
        <mxCell id="WVVUqtryo7cF9hxDMRjH-189" value="Customer Postal Code" style="shape=partialRectangle;connectable=0;fillColor=none;top=0;left=0;bottom=0;right=0;align=left;spacingLeft=6;overflow=hidden;strokeWidth=1;" parent="WVVUqtryo7cF9hxDMRjH-187" vertex="1">
          <mxGeometry x="30" width="152" height="30" as="geometry">
            <mxRectangle width="152" height="30" as="alternateBounds" />
          </mxGeometry>
        </mxCell>
        <mxCell id="WVVUqtryo7cF9hxDMRjH-190" value="ORDER" style="shape=table;startSize=30;container=1;collapsible=1;childLayout=tableLayout;fixedRows=1;rowLines=0;fontStyle=1;align=center;resizeLast=1;strokeWidth=1;fillColor=#fa6800;gradientDirection=south;fontColor=#000000;strokeColor=#C73500;gradientColor=#ffffff;" parent="1" vertex="1">
          <mxGeometry x="1966" y="580" width="168" height="90" as="geometry" />
        </mxCell>
        <mxCell id="WVVUqtryo7cF9hxDMRjH-191" value="" style="shape=tableRow;horizontal=0;startSize=0;swimlaneHead=0;swimlaneBody=0;fillColor=none;collapsible=0;dropTarget=0;points=[[0,0.5],[1,0.5]];portConstraint=eastwest;top=0;left=0;right=0;bottom=1;strokeWidth=1;" parent="WVVUqtryo7cF9hxDMRjH-190" vertex="1">
          <mxGeometry y="30" width="168" height="30" as="geometry" />
        </mxCell>
        <mxCell id="WVVUqtryo7cF9hxDMRjH-192" value="PK" style="shape=partialRectangle;connectable=0;fillColor=none;top=0;left=0;bottom=0;right=0;fontStyle=1;overflow=hidden;strokeWidth=1;" parent="WVVUqtryo7cF9hxDMRjH-191" vertex="1">
          <mxGeometry width="30" height="30" as="geometry">
            <mxRectangle width="30" height="30" as="alternateBounds" />
          </mxGeometry>
        </mxCell>
        <mxCell id="WVVUqtryo7cF9hxDMRjH-193" value="Order ID" style="shape=partialRectangle;connectable=0;fillColor=none;top=0;left=0;bottom=0;right=0;align=left;spacingLeft=6;fontStyle=5;overflow=hidden;strokeWidth=1;" parent="WVVUqtryo7cF9hxDMRjH-191" vertex="1">
          <mxGeometry x="30" width="138" height="30" as="geometry">
            <mxRectangle width="138" height="30" as="alternateBounds" />
          </mxGeometry>
        </mxCell>
        <mxCell id="WVVUqtryo7cF9hxDMRjH-194" value="" style="shape=tableRow;horizontal=0;startSize=0;swimlaneHead=0;swimlaneBody=0;fillColor=none;collapsible=0;dropTarget=0;points=[[0,0.5],[1,0.5]];portConstraint=eastwest;top=0;left=0;right=0;bottom=0;strokeWidth=1;" parent="WVVUqtryo7cF9hxDMRjH-190" vertex="1">
          <mxGeometry y="60" width="168" height="30" as="geometry" />
        </mxCell>
        <mxCell id="WVVUqtryo7cF9hxDMRjH-195" value="" style="shape=partialRectangle;connectable=0;fillColor=none;top=0;left=0;bottom=0;right=0;editable=1;overflow=hidden;strokeWidth=1;" parent="WVVUqtryo7cF9hxDMRjH-194" vertex="1">
          <mxGeometry width="30" height="30" as="geometry">
            <mxRectangle width="30" height="30" as="alternateBounds" />
          </mxGeometry>
        </mxCell>
        <mxCell id="WVVUqtryo7cF9hxDMRjH-196" value="Order Date" style="shape=partialRectangle;connectable=0;fillColor=none;top=0;left=0;bottom=0;right=0;align=left;spacingLeft=6;overflow=hidden;strokeWidth=1;" parent="WVVUqtryo7cF9hxDMRjH-194" vertex="1">
          <mxGeometry x="30" width="138" height="30" as="geometry">
            <mxRectangle width="138" height="30" as="alternateBounds" />
          </mxGeometry>
        </mxCell>
        <mxCell id="WVVUqtryo7cF9hxDMRjH-204" value="" style="edgeStyle=elbowEdgeStyle;fontSize=12;html=1;endArrow=ERzeroToMany;endFill=1;rounded=0;targetPerimeterSpacing=0;strokeWidth=1;jumpStyle=line;entryX=0.5;entryY=0;entryDx=0;entryDy=0;elbow=vertical;startArrow=ERmandOne;startFill=0;" parent="1" target="WVVUqtryo7cF9hxDMRjH-190" edge="1">
          <mxGeometry width="100" height="100" relative="1" as="geometry">
            <mxPoint x="2034" y="392" as="sourcePoint" />
            <mxPoint x="2093" y="457" as="targetPoint" />
          </mxGeometry>
        </mxCell>
        <mxCell id="WVVUqtryo7cF9hxDMRjH-206" value="Submits" style="edgeLabel;html=1;align=center;verticalAlign=middle;resizable=0;points=[];" parent="WVVUqtryo7cF9hxDMRjH-204" vertex="1" connectable="0">
          <mxGeometry x="-0.1375" relative="1" as="geometry">
            <mxPoint x="21" y="-3" as="offset" />
          </mxGeometry>
        </mxCell>
        <mxCell id="WVVUqtryo7cF9hxDMRjH-207" value="Mandatory&amp;nbsp;&lt;br&gt;One" style="edgeLabel;html=1;align=center;verticalAlign=middle;resizable=0;points=[];" parent="WVVUqtryo7cF9hxDMRjH-204" vertex="1" connectable="0">
          <mxGeometry x="-0.8519" relative="1" as="geometry">
            <mxPoint x="34" y="2" as="offset" />
          </mxGeometry>
        </mxCell>
        <mxCell id="WVVUqtryo7cF9hxDMRjH-209" value="Optional&lt;br&gt;Many" style="edgeLabel;html=1;align=center;verticalAlign=middle;resizable=0;points=[];" parent="WVVUqtryo7cF9hxDMRjH-204" vertex="1" connectable="0">
          <mxGeometry x="0.7383" y="1" relative="1" as="geometry">
            <mxPoint x="-34" y="8" as="offset" />
          </mxGeometry>
        </mxCell>
        <mxCell id="WVVUqtryo7cF9hxDMRjH-210" value="ORDER LINE" style="swimlane;childLayout=stackLayout;horizontal=1;startSize=30;horizontalStack=0;rounded=1;fontSize=14;fontStyle=0;strokeWidth=1;resizeParent=0;resizeLast=1;shadow=0;dashed=0;align=center;fillColor=#fa6800;gradientDirection=south;fontColor=#000000;strokeColor=#C73500;gradientColor=#ffffff;" parent="1" vertex="1">
          <mxGeometry x="1842" y="-519" width="161" height="99" as="geometry" />
        </mxCell>
        <mxCell id="WVVUqtryo7cF9hxDMRjH-212" value="" style="shape=table;startSize=0;container=1;collapsible=1;childLayout=tableLayout;fixedRows=1;rowLines=0;fontStyle=0;align=center;resizeLast=1;strokeColor=none;fillColor=none;collapsible=0;" parent="WVVUqtryo7cF9hxDMRjH-210" vertex="1">
          <mxGeometry y="30" width="161" height="30" as="geometry" />
        </mxCell>
        <mxCell id="WVVUqtryo7cF9hxDMRjH-213" value="" style="shape=tableRow;horizontal=0;startSize=0;swimlaneHead=0;swimlaneBody=0;fillColor=none;collapsible=0;dropTarget=0;points=[[0,0.5],[1,0.5]];portConstraint=eastwest;top=0;left=0;right=0;bottom=1;strokeWidth=1;" parent="WVVUqtryo7cF9hxDMRjH-212" vertex="1">
          <mxGeometry width="161" height="30" as="geometry" />
        </mxCell>
        <mxCell id="WVVUqtryo7cF9hxDMRjH-214" value="PK" style="shape=partialRectangle;connectable=0;fillColor=none;top=0;left=0;bottom=0;right=0;fontStyle=1;overflow=hidden;strokeWidth=1;" parent="WVVUqtryo7cF9hxDMRjH-213" vertex="1">
          <mxGeometry width="30" height="30" as="geometry">
            <mxRectangle width="30" height="30" as="alternateBounds" />
          </mxGeometry>
        </mxCell>
        <mxCell id="WVVUqtryo7cF9hxDMRjH-215" value="Order ID" style="shape=partialRectangle;connectable=0;fillColor=none;top=0;left=0;bottom=0;right=0;align=left;spacingLeft=6;fontStyle=5;overflow=hidden;strokeWidth=1;" parent="WVVUqtryo7cF9hxDMRjH-213" vertex="1">
          <mxGeometry x="30" width="131" height="30" as="geometry">
            <mxRectangle width="131" height="30" as="alternateBounds" />
          </mxGeometry>
        </mxCell>
        <mxCell id="WVVUqtryo7cF9hxDMRjH-211" value="         Order Date" style="align=left;strokeColor=none;fillColor=none;spacingLeft=4;fontSize=12;verticalAlign=top;resizable=0;rotatable=0;part=1;" parent="WVVUqtryo7cF9hxDMRjH-210" vertex="1">
          <mxGeometry y="60" width="161" height="39" as="geometry" />
        </mxCell>
        <mxCell id="WVVUqtryo7cF9hxDMRjH-216" value="PRODUCT" style="shape=table;startSize=30;container=1;collapsible=1;childLayout=tableLayout;fixedRows=1;rowLines=0;fontStyle=1;align=center;resizeLast=1;fillColor=#fa6800;strokeColor=#C73500;fontColor=#000000;gradientColor=#ffffff;" parent="1" vertex="1">
          <mxGeometry x="1842" y="-269" width="169.5" height="135" as="geometry" />
        </mxCell>
        <mxCell id="WVVUqtryo7cF9hxDMRjH-217" value="" style="shape=tableRow;horizontal=0;startSize=0;swimlaneHead=0;swimlaneBody=0;fillColor=none;collapsible=0;dropTarget=0;points=[[0,0.5],[1,0.5]];portConstraint=eastwest;top=0;left=0;right=0;bottom=1;" parent="WVVUqtryo7cF9hxDMRjH-216" vertex="1">
          <mxGeometry y="30" width="169.5" height="25" as="geometry" />
        </mxCell>
        <mxCell id="WVVUqtryo7cF9hxDMRjH-218" value="PK" style="shape=partialRectangle;connectable=0;fillColor=none;top=0;left=0;bottom=0;right=0;fontStyle=1;overflow=hidden;" parent="WVVUqtryo7cF9hxDMRjH-217" vertex="1">
          <mxGeometry width="30" height="25" as="geometry">
            <mxRectangle width="30" height="25" as="alternateBounds" />
          </mxGeometry>
        </mxCell>
        <mxCell id="WVVUqtryo7cF9hxDMRjH-219" value="Product ID" style="shape=partialRectangle;connectable=0;fillColor=none;top=0;left=0;bottom=0;right=0;align=left;spacingLeft=6;fontStyle=5;overflow=hidden;" parent="WVVUqtryo7cF9hxDMRjH-217" vertex="1">
          <mxGeometry x="30" width="139.5" height="25" as="geometry">
            <mxRectangle width="139.5" height="25" as="alternateBounds" />
          </mxGeometry>
        </mxCell>
        <mxCell id="WVVUqtryo7cF9hxDMRjH-220" value="" style="shape=tableRow;horizontal=0;startSize=0;swimlaneHead=0;swimlaneBody=0;fillColor=none;collapsible=0;dropTarget=0;points=[[0,0.5],[1,0.5]];portConstraint=eastwest;top=0;left=0;right=0;bottom=0;" parent="WVVUqtryo7cF9hxDMRjH-216" vertex="1">
          <mxGeometry y="55" width="169.5" height="30" as="geometry" />
        </mxCell>
        <mxCell id="WVVUqtryo7cF9hxDMRjH-221" value="" style="shape=partialRectangle;connectable=0;fillColor=none;top=0;left=0;bottom=0;right=0;editable=1;overflow=hidden;" parent="WVVUqtryo7cF9hxDMRjH-220" vertex="1">
          <mxGeometry width="30" height="30" as="geometry">
            <mxRectangle width="30" height="30" as="alternateBounds" />
          </mxGeometry>
        </mxCell>
        <mxCell id="WVVUqtryo7cF9hxDMRjH-222" value="Product Description" style="shape=partialRectangle;connectable=0;fillColor=none;top=0;left=0;bottom=0;right=0;align=left;spacingLeft=6;overflow=hidden;fontStyle=0" parent="WVVUqtryo7cF9hxDMRjH-220" vertex="1">
          <mxGeometry x="30" width="139.5" height="30" as="geometry">
            <mxRectangle width="139.5" height="30" as="alternateBounds" />
          </mxGeometry>
        </mxCell>
        <mxCell id="WVVUqtryo7cF9hxDMRjH-223" value="" style="shape=tableRow;horizontal=0;startSize=0;swimlaneHead=0;swimlaneBody=0;fillColor=none;collapsible=0;dropTarget=0;points=[[0,0.5],[1,0.5]];portConstraint=eastwest;top=0;left=0;right=0;bottom=0;" parent="WVVUqtryo7cF9hxDMRjH-216" vertex="1">
          <mxGeometry y="85" width="169.5" height="20" as="geometry" />
        </mxCell>
        <mxCell id="WVVUqtryo7cF9hxDMRjH-224" value="" style="shape=partialRectangle;connectable=0;fillColor=none;top=0;left=0;bottom=0;right=0;editable=1;overflow=hidden;" parent="WVVUqtryo7cF9hxDMRjH-223" vertex="1">
          <mxGeometry width="30" height="20" as="geometry">
            <mxRectangle width="30" height="20" as="alternateBounds" />
          </mxGeometry>
        </mxCell>
        <mxCell id="WVVUqtryo7cF9hxDMRjH-225" value="Product Finish" style="shape=partialRectangle;connectable=0;fillColor=none;top=0;left=0;bottom=0;right=0;align=left;spacingLeft=6;overflow=hidden;" parent="WVVUqtryo7cF9hxDMRjH-223" vertex="1">
          <mxGeometry x="30" width="139.5" height="20" as="geometry">
            <mxRectangle width="139.5" height="20" as="alternateBounds" />
          </mxGeometry>
        </mxCell>
        <mxCell id="WVVUqtryo7cF9hxDMRjH-226" value="" style="shape=tableRow;horizontal=0;startSize=0;swimlaneHead=0;swimlaneBody=0;fillColor=none;collapsible=0;dropTarget=0;points=[[0,0.5],[1,0.5]];portConstraint=eastwest;top=0;left=0;right=0;bottom=0;" parent="WVVUqtryo7cF9hxDMRjH-216" vertex="1">
          <mxGeometry y="105" width="169.5" height="30" as="geometry" />
        </mxCell>
        <mxCell id="WVVUqtryo7cF9hxDMRjH-227" value="" style="shape=partialRectangle;connectable=0;fillColor=none;top=0;left=0;bottom=0;right=0;editable=1;overflow=hidden;" parent="WVVUqtryo7cF9hxDMRjH-226" vertex="1">
          <mxGeometry width="30" height="30" as="geometry">
            <mxRectangle width="30" height="30" as="alternateBounds" />
          </mxGeometry>
        </mxCell>
        <mxCell id="WVVUqtryo7cF9hxDMRjH-228" value="Product Standard Price" style="shape=partialRectangle;connectable=0;fillColor=none;top=0;left=0;bottom=0;right=0;align=left;spacingLeft=6;overflow=hidden;" parent="WVVUqtryo7cF9hxDMRjH-226" vertex="1">
          <mxGeometry x="30" width="139.5" height="30" as="geometry">
            <mxRectangle width="139.5" height="30" as="alternateBounds" />
          </mxGeometry>
        </mxCell>
        <mxCell id="WVVUqtryo7cF9hxDMRjH-229" value="ORDER" style="shape=table;startSize=30;container=1;collapsible=1;childLayout=tableLayout;fixedRows=1;rowLines=0;fontStyle=1;align=center;resizeLast=1;strokeWidth=1;fillColor=#fa6800;gradientDirection=south;fontColor=#000000;strokeColor=#C73500;gradientColor=#ffffff;" parent="1" vertex="1">
          <mxGeometry x="2150" y="-519" width="168" height="90" as="geometry" />
        </mxCell>
        <mxCell id="WVVUqtryo7cF9hxDMRjH-230" value="" style="shape=tableRow;horizontal=0;startSize=0;swimlaneHead=0;swimlaneBody=0;fillColor=none;collapsible=0;dropTarget=0;points=[[0,0.5],[1,0.5]];portConstraint=eastwest;top=0;left=0;right=0;bottom=1;strokeWidth=1;" parent="WVVUqtryo7cF9hxDMRjH-229" vertex="1">
          <mxGeometry y="30" width="168" height="30" as="geometry" />
        </mxCell>
        <mxCell id="WVVUqtryo7cF9hxDMRjH-231" value="PK" style="shape=partialRectangle;connectable=0;fillColor=none;top=0;left=0;bottom=0;right=0;fontStyle=1;overflow=hidden;strokeWidth=1;" parent="WVVUqtryo7cF9hxDMRjH-230" vertex="1">
          <mxGeometry width="30" height="30" as="geometry">
            <mxRectangle width="30" height="30" as="alternateBounds" />
          </mxGeometry>
        </mxCell>
        <mxCell id="WVVUqtryo7cF9hxDMRjH-232" value="Order ID" style="shape=partialRectangle;connectable=0;fillColor=none;top=0;left=0;bottom=0;right=0;align=left;spacingLeft=6;fontStyle=5;overflow=hidden;strokeWidth=1;" parent="WVVUqtryo7cF9hxDMRjH-230" vertex="1">
          <mxGeometry x="30" width="138" height="30" as="geometry">
            <mxRectangle width="138" height="30" as="alternateBounds" />
          </mxGeometry>
        </mxCell>
        <mxCell id="WVVUqtryo7cF9hxDMRjH-233" value="" style="shape=tableRow;horizontal=0;startSize=0;swimlaneHead=0;swimlaneBody=0;fillColor=none;collapsible=0;dropTarget=0;points=[[0,0.5],[1,0.5]];portConstraint=eastwest;top=0;left=0;right=0;bottom=0;strokeWidth=1;" parent="WVVUqtryo7cF9hxDMRjH-229" vertex="1">
          <mxGeometry y="60" width="168" height="30" as="geometry" />
        </mxCell>
        <mxCell id="WVVUqtryo7cF9hxDMRjH-234" value="" style="shape=partialRectangle;connectable=0;fillColor=none;top=0;left=0;bottom=0;right=0;editable=1;overflow=hidden;strokeWidth=1;" parent="WVVUqtryo7cF9hxDMRjH-233" vertex="1">
          <mxGeometry width="30" height="30" as="geometry">
            <mxRectangle width="30" height="30" as="alternateBounds" />
          </mxGeometry>
        </mxCell>
        <mxCell id="WVVUqtryo7cF9hxDMRjH-235" value="Order Date" style="shape=partialRectangle;connectable=0;fillColor=none;top=0;left=0;bottom=0;right=0;align=left;spacingLeft=6;overflow=hidden;strokeWidth=1;" parent="WVVUqtryo7cF9hxDMRjH-233" vertex="1">
          <mxGeometry x="30" width="138" height="30" as="geometry">
            <mxRectangle width="138" height="30" as="alternateBounds" />
          </mxGeometry>
        </mxCell>
        <mxCell id="WVVUqtryo7cF9hxDMRjH-237" value="" style="endArrow=ERzeroToMany;html=1;rounded=0;strokeWidth=1;elbow=vertical;jumpStyle=line;exitX=0.5;exitY=1;exitDx=0;exitDy=0;startArrow=ERmandOne;startFill=0;endFill=0;entryX=0.5;entryY=1;entryDx=0;entryDy=0;sourcePerimeterSpacing=0;" parent="1" target="WVVUqtryo7cF9hxDMRjH-211" edge="1">
          <mxGeometry relative="1" as="geometry">
            <mxPoint x="1922" y="-270" as="sourcePoint" />
            <mxPoint x="1927" y="-398" as="targetPoint" />
          </mxGeometry>
        </mxCell>
        <mxCell id="WVVUqtryo7cF9hxDMRjH-238" value="Mandatory&amp;nbsp;&lt;br&gt;One" style="edgeLabel;html=1;align=center;verticalAlign=middle;resizable=0;points=[];" parent="WVVUqtryo7cF9hxDMRjH-237" vertex="1" connectable="0">
          <mxGeometry x="-0.7251" relative="1" as="geometry">
            <mxPoint x="29" y="-6" as="offset" />
          </mxGeometry>
        </mxCell>
        <mxCell id="WVVUqtryo7cF9hxDMRjH-239" value="Optional&lt;br&gt;Many" style="edgeLabel;html=1;align=center;verticalAlign=middle;resizable=0;points=[];" parent="WVVUqtryo7cF9hxDMRjH-237" vertex="1" connectable="0">
          <mxGeometry x="0.5638" y="1" relative="1" as="geometry">
            <mxPoint x="-26" y="-19" as="offset" />
          </mxGeometry>
        </mxCell>
        <mxCell id="WVVUqtryo7cF9hxDMRjH-236" value="" style="edgeStyle=entityRelationEdgeStyle;fontSize=12;html=1;endArrow=ERoneToMany;endFill=0;rounded=0;strokeWidth=1;elbow=vertical;jumpStyle=line;exitX=0;exitY=0.5;exitDx=0;exitDy=0;entryX=1;entryY=0.5;entryDx=0;entryDy=0;startArrow=ERmandOne;startFill=0;sourcePerimeterSpacing=0;" parent="1" source="WVVUqtryo7cF9hxDMRjH-230" target="WVVUqtryo7cF9hxDMRjH-213" edge="1">
          <mxGeometry width="100" height="100" relative="1" as="geometry">
            <mxPoint x="2118" y="-434" as="sourcePoint" />
            <mxPoint x="2018" y="-334" as="targetPoint" />
          </mxGeometry>
        </mxCell>
        <mxCell id="WVVUqtryo7cF9hxDMRjH-240" value="Associative Entity" style="edgeLabel;html=1;align=center;verticalAlign=middle;resizable=0;points=[];" parent="WVVUqtryo7cF9hxDMRjH-236" vertex="1" connectable="0">
          <mxGeometry x="0.5141" y="-2" relative="1" as="geometry">
            <mxPoint x="-82" y="-53" as="offset" />
          </mxGeometry>
        </mxCell>
        <mxCell id="WVVUqtryo7cF9hxDMRjH-241" value="Fixed Entity" style="edgeLabel;html=1;align=center;verticalAlign=middle;resizable=0;points=[];" parent="1" vertex="1" connectable="0">
          <mxGeometry x="2272.0014285714283" y="-529" as="geometry">
            <mxPoint x="1" y="-1" as="offset" />
          </mxGeometry>
        </mxCell>
        <mxCell id="WVVUqtryo7cF9hxDMRjH-242" value="Fixed Entity" style="edgeLabel;html=1;align=center;verticalAlign=middle;resizable=0;points=[];" parent="1" vertex="1" connectable="0">
          <mxGeometry x="1868.0014285714283" y="-279" as="geometry">
            <mxPoint x="1" y="-1" as="offset" />
          </mxGeometry>
        </mxCell>
        <mxCell id="WVVUqtryo7cF9hxDMRjH-243" value="Mandatory&amp;nbsp;&lt;br&gt;One" style="edgeLabel;html=1;align=center;verticalAlign=middle;resizable=0;points=[];" parent="1" vertex="1" connectable="0">
          <mxGeometry x="2117.998253589068" y="-491.99607672052457" as="geometry" />
        </mxCell>
        <mxCell id="WVVUqtryo7cF9hxDMRjH-244" value="Mandatory&amp;nbsp;&lt;br&gt;Many" style="edgeLabel;html=1;align=center;verticalAlign=middle;resizable=0;points=[];" parent="1" vertex="1" connectable="0">
          <mxGeometry x="2033.9982535890683" y="-452.99607672052457" as="geometry" />
        </mxCell>
        <mxCell id="WVVUqtryo7cF9hxDMRjH-245" value="TERRITORY" style="shape=table;startSize=30;container=1;collapsible=1;childLayout=tableLayout;fixedRows=1;rowLines=0;fontStyle=1;align=center;resizeLast=1;fillColor=#fa6800;gradientDirection=south;fontColor=#000000;strokeColor=#C73500;gradientColor=#ffffff;" parent="1" vertex="1">
          <mxGeometry x="470" y="-435" width="174" height="90" as="geometry" />
        </mxCell>
        <mxCell id="WVVUqtryo7cF9hxDMRjH-246" value="" style="shape=tableRow;horizontal=0;startSize=0;swimlaneHead=0;swimlaneBody=0;fillColor=none;collapsible=0;dropTarget=0;points=[[0,0.5],[1,0.5]];portConstraint=eastwest;top=0;left=0;right=0;bottom=1;" parent="WVVUqtryo7cF9hxDMRjH-245" vertex="1">
          <mxGeometry y="30" width="174" height="30" as="geometry" />
        </mxCell>
        <mxCell id="WVVUqtryo7cF9hxDMRjH-247" value="PK" style="shape=partialRectangle;connectable=0;fillColor=none;top=0;left=0;bottom=0;right=0;fontStyle=1;overflow=hidden;" parent="WVVUqtryo7cF9hxDMRjH-246" vertex="1">
          <mxGeometry width="30" height="30" as="geometry">
            <mxRectangle width="30" height="30" as="alternateBounds" />
          </mxGeometry>
        </mxCell>
        <mxCell id="WVVUqtryo7cF9hxDMRjH-248" value="Territory ID" style="shape=partialRectangle;connectable=0;fillColor=none;top=0;left=0;bottom=0;right=0;align=left;spacingLeft=6;fontStyle=5;overflow=hidden;" parent="WVVUqtryo7cF9hxDMRjH-246" vertex="1">
          <mxGeometry x="30" width="144" height="30" as="geometry">
            <mxRectangle width="144" height="30" as="alternateBounds" />
          </mxGeometry>
        </mxCell>
        <mxCell id="WVVUqtryo7cF9hxDMRjH-249" value="" style="shape=tableRow;horizontal=0;startSize=0;swimlaneHead=0;swimlaneBody=0;fillColor=none;collapsible=0;dropTarget=0;points=[[0,0.5],[1,0.5]];portConstraint=eastwest;top=0;left=0;right=0;bottom=0;" parent="WVVUqtryo7cF9hxDMRjH-245" vertex="1">
          <mxGeometry y="60" width="174" height="30" as="geometry" />
        </mxCell>
        <mxCell id="WVVUqtryo7cF9hxDMRjH-250" value="" style="shape=partialRectangle;connectable=0;fillColor=none;top=0;left=0;bottom=0;right=0;editable=1;overflow=hidden;" parent="WVVUqtryo7cF9hxDMRjH-249" vertex="1">
          <mxGeometry width="30" height="30" as="geometry">
            <mxRectangle width="30" height="30" as="alternateBounds" />
          </mxGeometry>
        </mxCell>
        <mxCell id="WVVUqtryo7cF9hxDMRjH-251" value="Territory Name" style="shape=partialRectangle;connectable=0;fillColor=none;top=0;left=0;bottom=0;right=0;align=left;spacingLeft=6;overflow=hidden;" parent="WVVUqtryo7cF9hxDMRjH-249" vertex="1">
          <mxGeometry x="30" width="144" height="30" as="geometry">
            <mxRectangle width="144" height="30" as="alternateBounds" />
          </mxGeometry>
        </mxCell>
        <mxCell id="WVVUqtryo7cF9hxDMRjH-252" value="SALESPERSON" style="shape=table;startSize=30;container=1;collapsible=1;childLayout=tableLayout;fixedRows=1;rowLines=0;fontStyle=1;align=center;resizeLast=1;strokeWidth=1;fillColor=#fa6800;gradientDirection=south;fontColor=#000000;strokeColor=#C73500;gradientColor=#ffffff;" parent="1" vertex="1">
          <mxGeometry x="470" y="-775" width="182" height="150" as="geometry" />
        </mxCell>
        <mxCell id="WVVUqtryo7cF9hxDMRjH-253" value="" style="shape=tableRow;horizontal=0;startSize=0;swimlaneHead=0;swimlaneBody=0;fillColor=none;collapsible=0;dropTarget=0;points=[[0,0.5],[1,0.5]];portConstraint=eastwest;top=0;left=0;right=0;bottom=1;strokeWidth=1;" parent="WVVUqtryo7cF9hxDMRjH-252" vertex="1">
          <mxGeometry y="30" width="182" height="30" as="geometry" />
        </mxCell>
        <mxCell id="WVVUqtryo7cF9hxDMRjH-254" value="PK" style="shape=partialRectangle;connectable=0;fillColor=none;top=0;left=0;bottom=0;right=0;fontStyle=1;overflow=hidden;strokeWidth=1;" parent="WVVUqtryo7cF9hxDMRjH-253" vertex="1">
          <mxGeometry width="30" height="30" as="geometry">
            <mxRectangle width="30" height="30" as="alternateBounds" />
          </mxGeometry>
        </mxCell>
        <mxCell id="WVVUqtryo7cF9hxDMRjH-255" value="SalesPerson ID" style="shape=partialRectangle;connectable=0;fillColor=none;top=0;left=0;bottom=0;right=0;align=left;spacingLeft=6;fontStyle=5;overflow=hidden;strokeWidth=1;" parent="WVVUqtryo7cF9hxDMRjH-253" vertex="1">
          <mxGeometry x="30" width="152" height="30" as="geometry">
            <mxRectangle width="152" height="30" as="alternateBounds" />
          </mxGeometry>
        </mxCell>
        <mxCell id="WVVUqtryo7cF9hxDMRjH-256" value="" style="shape=tableRow;horizontal=0;startSize=0;swimlaneHead=0;swimlaneBody=0;fillColor=none;collapsible=0;dropTarget=0;points=[[0,0.5],[1,0.5]];portConstraint=eastwest;top=0;left=0;right=0;bottom=0;strokeWidth=1;" parent="WVVUqtryo7cF9hxDMRjH-252" vertex="1">
          <mxGeometry y="60" width="182" height="30" as="geometry" />
        </mxCell>
        <mxCell id="WVVUqtryo7cF9hxDMRjH-257" value="" style="shape=partialRectangle;connectable=0;fillColor=none;top=0;left=0;bottom=0;right=0;editable=1;overflow=hidden;strokeWidth=1;" parent="WVVUqtryo7cF9hxDMRjH-256" vertex="1">
          <mxGeometry width="30" height="30" as="geometry">
            <mxRectangle width="30" height="30" as="alternateBounds" />
          </mxGeometry>
        </mxCell>
        <mxCell id="WVVUqtryo7cF9hxDMRjH-258" value="SalesPerson Name" style="shape=partialRectangle;connectable=0;fillColor=none;top=0;left=0;bottom=0;right=0;align=left;spacingLeft=6;overflow=hidden;strokeWidth=1;" parent="WVVUqtryo7cF9hxDMRjH-256" vertex="1">
          <mxGeometry x="30" width="152" height="30" as="geometry">
            <mxRectangle width="152" height="30" as="alternateBounds" />
          </mxGeometry>
        </mxCell>
        <mxCell id="WVVUqtryo7cF9hxDMRjH-259" value="" style="shape=tableRow;horizontal=0;startSize=0;swimlaneHead=0;swimlaneBody=0;fillColor=none;collapsible=0;dropTarget=0;points=[[0,0.5],[1,0.5]];portConstraint=eastwest;top=0;left=0;right=0;bottom=0;strokeWidth=1;" parent="WVVUqtryo7cF9hxDMRjH-252" vertex="1">
          <mxGeometry y="90" width="182" height="30" as="geometry" />
        </mxCell>
        <mxCell id="WVVUqtryo7cF9hxDMRjH-260" value="" style="shape=partialRectangle;connectable=0;fillColor=none;top=0;left=0;bottom=0;right=0;editable=1;overflow=hidden;strokeWidth=1;" parent="WVVUqtryo7cF9hxDMRjH-259" vertex="1">
          <mxGeometry width="30" height="30" as="geometry">
            <mxRectangle width="30" height="30" as="alternateBounds" />
          </mxGeometry>
        </mxCell>
        <mxCell id="WVVUqtryo7cF9hxDMRjH-261" value="SalesPerson Telephone" style="shape=partialRectangle;connectable=0;fillColor=none;top=0;left=0;bottom=0;right=0;align=left;spacingLeft=6;overflow=hidden;strokeWidth=1;" parent="WVVUqtryo7cF9hxDMRjH-259" vertex="1">
          <mxGeometry x="30" width="152" height="30" as="geometry">
            <mxRectangle width="152" height="30" as="alternateBounds" />
          </mxGeometry>
        </mxCell>
        <mxCell id="WVVUqtryo7cF9hxDMRjH-262" value="" style="shape=tableRow;horizontal=0;startSize=0;swimlaneHead=0;swimlaneBody=0;fillColor=none;collapsible=0;dropTarget=0;points=[[0,0.5],[1,0.5]];portConstraint=eastwest;top=0;left=0;right=0;bottom=0;strokeWidth=1;" parent="WVVUqtryo7cF9hxDMRjH-252" vertex="1">
          <mxGeometry y="120" width="182" height="30" as="geometry" />
        </mxCell>
        <mxCell id="WVVUqtryo7cF9hxDMRjH-263" value="" style="shape=partialRectangle;connectable=0;fillColor=none;top=0;left=0;bottom=0;right=0;editable=1;overflow=hidden;strokeWidth=1;" parent="WVVUqtryo7cF9hxDMRjH-262" vertex="1">
          <mxGeometry width="30" height="30" as="geometry">
            <mxRectangle width="30" height="30" as="alternateBounds" />
          </mxGeometry>
        </mxCell>
        <mxCell id="WVVUqtryo7cF9hxDMRjH-264" value="SalesPerson Fax" style="shape=partialRectangle;connectable=0;fillColor=none;top=0;left=0;bottom=0;right=0;align=left;spacingLeft=6;overflow=hidden;strokeWidth=1;" parent="WVVUqtryo7cF9hxDMRjH-262" vertex="1">
          <mxGeometry x="30" width="152" height="30" as="geometry">
            <mxRectangle width="152" height="30" as="alternateBounds" />
          </mxGeometry>
        </mxCell>
        <mxCell id="WVVUqtryo7cF9hxDMRjH-265" value="" style="endArrow=ERmandOne;html=1;rounded=0;targetPerimeterSpacing=0;strokeWidth=1;elbow=vertical;jumpStyle=line;exitX=0.452;exitY=1.03;exitDx=0;exitDy=0;exitPerimeter=0;entryX=0.473;entryY=0.016;entryDx=0;entryDy=0;entryPerimeter=0;dashed=1;startArrow=ERoneToMany;startFill=0;endFill=0;" parent="1" source="WVVUqtryo7cF9hxDMRjH-262" target="WVVUqtryo7cF9hxDMRjH-245" edge="1">
          <mxGeometry relative="1" as="geometry">
            <mxPoint x="475" y="-557" as="sourcePoint" />
            <mxPoint x="635" y="-557" as="targetPoint" />
          </mxGeometry>
        </mxCell>
        <mxCell id="WVVUqtryo7cF9hxDMRjH-266" value="Mandatory&lt;br&gt;Many" style="edgeLabel;html=1;align=center;verticalAlign=middle;resizable=0;points=[];" parent="WVVUqtryo7cF9hxDMRjH-265" vertex="1" connectable="0">
          <mxGeometry x="-0.7902" relative="1" as="geometry">
            <mxPoint x="33" y="-7" as="offset" />
          </mxGeometry>
        </mxCell>
        <mxCell id="WVVUqtryo7cF9hxDMRjH-268" value="Serves" style="edgeLabel;html=1;align=center;verticalAlign=middle;resizable=0;points=[];rotation=-90;" parent="WVVUqtryo7cF9hxDMRjH-265" vertex="1" connectable="0">
          <mxGeometry x="-0.1546" y="-2" relative="1" as="geometry">
            <mxPoint x="-8" y="9" as="offset" />
          </mxGeometry>
        </mxCell>
        <mxCell id="WVVUqtryo7cF9hxDMRjH-267" value="Mandatory&lt;br&gt;One" style="edgeLabel;html=1;align=center;verticalAlign=middle;resizable=0;points=[];" parent="1" vertex="1" connectable="0">
          <mxGeometry x="522.9979886637184" y="-453.0000003977359" as="geometry" />
        </mxCell>
        <mxCell id="WVVUqtryo7cF9hxDMRjH-269" value="RAW MATERIAL" style="shape=table;startSize=30;container=1;collapsible=1;childLayout=tableLayout;fixedRows=1;rowLines=0;fontStyle=1;align=center;resizeLast=1;strokeWidth=1;fillColor=#fa6800;gradientDirection=south;fontColor=#000000;strokeColor=#C73500;gradientColor=#ffffff;" parent="1" vertex="1">
          <mxGeometry x="1658" y="1102" width="169" height="150" as="geometry" />
        </mxCell>
        <mxCell id="WVVUqtryo7cF9hxDMRjH-270" value="" style="shape=tableRow;horizontal=0;startSize=0;swimlaneHead=0;swimlaneBody=0;fillColor=none;collapsible=0;dropTarget=0;points=[[0,0.5],[1,0.5]];portConstraint=eastwest;top=0;left=0;right=0;bottom=1;strokeWidth=1;" parent="WVVUqtryo7cF9hxDMRjH-269" vertex="1">
          <mxGeometry y="30" width="169" height="30" as="geometry" />
        </mxCell>
        <mxCell id="WVVUqtryo7cF9hxDMRjH-271" value="PK" style="shape=partialRectangle;connectable=0;fillColor=none;top=0;left=0;bottom=0;right=0;fontStyle=1;overflow=hidden;strokeWidth=1;" parent="WVVUqtryo7cF9hxDMRjH-270" vertex="1">
          <mxGeometry width="30" height="30" as="geometry">
            <mxRectangle width="30" height="30" as="alternateBounds" />
          </mxGeometry>
        </mxCell>
        <mxCell id="WVVUqtryo7cF9hxDMRjH-272" value="Material ID" style="shape=partialRectangle;connectable=0;fillColor=none;top=0;left=0;bottom=0;right=0;align=left;spacingLeft=6;fontStyle=5;overflow=hidden;strokeWidth=1;" parent="WVVUqtryo7cF9hxDMRjH-270" vertex="1">
          <mxGeometry x="30" width="139" height="30" as="geometry">
            <mxRectangle width="139" height="30" as="alternateBounds" />
          </mxGeometry>
        </mxCell>
        <mxCell id="WVVUqtryo7cF9hxDMRjH-273" value="" style="shape=tableRow;horizontal=0;startSize=0;swimlaneHead=0;swimlaneBody=0;fillColor=none;collapsible=0;dropTarget=0;points=[[0,0.5],[1,0.5]];portConstraint=eastwest;top=0;left=0;right=0;bottom=0;strokeWidth=1;" parent="WVVUqtryo7cF9hxDMRjH-269" vertex="1">
          <mxGeometry y="60" width="169" height="30" as="geometry" />
        </mxCell>
        <mxCell id="WVVUqtryo7cF9hxDMRjH-274" value="" style="shape=partialRectangle;connectable=0;fillColor=none;top=0;left=0;bottom=0;right=0;editable=1;overflow=hidden;strokeWidth=1;" parent="WVVUqtryo7cF9hxDMRjH-273" vertex="1">
          <mxGeometry width="30" height="30" as="geometry">
            <mxRectangle width="30" height="30" as="alternateBounds" />
          </mxGeometry>
        </mxCell>
        <mxCell id="WVVUqtryo7cF9hxDMRjH-275" value="Material Name" style="shape=partialRectangle;connectable=0;fillColor=none;top=0;left=0;bottom=0;right=0;align=left;spacingLeft=6;overflow=hidden;strokeWidth=1;" parent="WVVUqtryo7cF9hxDMRjH-273" vertex="1">
          <mxGeometry x="30" width="139" height="30" as="geometry">
            <mxRectangle width="139" height="30" as="alternateBounds" />
          </mxGeometry>
        </mxCell>
        <mxCell id="WVVUqtryo7cF9hxDMRjH-276" value="" style="shape=tableRow;horizontal=0;startSize=0;swimlaneHead=0;swimlaneBody=0;fillColor=none;collapsible=0;dropTarget=0;points=[[0,0.5],[1,0.5]];portConstraint=eastwest;top=0;left=0;right=0;bottom=0;strokeWidth=1;" parent="WVVUqtryo7cF9hxDMRjH-269" vertex="1">
          <mxGeometry y="90" width="169" height="30" as="geometry" />
        </mxCell>
        <mxCell id="WVVUqtryo7cF9hxDMRjH-277" value="" style="shape=partialRectangle;connectable=0;fillColor=none;top=0;left=0;bottom=0;right=0;editable=1;overflow=hidden;strokeWidth=1;" parent="WVVUqtryo7cF9hxDMRjH-276" vertex="1">
          <mxGeometry width="30" height="30" as="geometry">
            <mxRectangle width="30" height="30" as="alternateBounds" />
          </mxGeometry>
        </mxCell>
        <mxCell id="WVVUqtryo7cF9hxDMRjH-278" value="Material Standard Cost" style="shape=partialRectangle;connectable=0;fillColor=none;top=0;left=0;bottom=0;right=0;align=left;spacingLeft=6;overflow=hidden;strokeWidth=1;" parent="WVVUqtryo7cF9hxDMRjH-276" vertex="1">
          <mxGeometry x="30" width="139" height="30" as="geometry">
            <mxRectangle width="139" height="30" as="alternateBounds" />
          </mxGeometry>
        </mxCell>
        <mxCell id="WVVUqtryo7cF9hxDMRjH-279" value="" style="shape=tableRow;horizontal=0;startSize=0;swimlaneHead=0;swimlaneBody=0;fillColor=none;collapsible=0;dropTarget=0;points=[[0,0.5],[1,0.5]];portConstraint=eastwest;top=0;left=0;right=0;bottom=0;strokeWidth=1;" parent="WVVUqtryo7cF9hxDMRjH-269" vertex="1">
          <mxGeometry y="120" width="169" height="30" as="geometry" />
        </mxCell>
        <mxCell id="WVVUqtryo7cF9hxDMRjH-280" value="" style="shape=partialRectangle;connectable=0;fillColor=none;top=0;left=0;bottom=0;right=0;editable=1;overflow=hidden;strokeWidth=1;" parent="WVVUqtryo7cF9hxDMRjH-279" vertex="1">
          <mxGeometry width="30" height="30" as="geometry">
            <mxRectangle width="30" height="30" as="alternateBounds" />
          </mxGeometry>
        </mxCell>
        <mxCell id="WVVUqtryo7cF9hxDMRjH-281" value="Unit of Measure" style="shape=partialRectangle;connectable=0;fillColor=none;top=0;left=0;bottom=0;right=0;align=left;spacingLeft=6;overflow=hidden;strokeWidth=1;" parent="WVVUqtryo7cF9hxDMRjH-279" vertex="1">
          <mxGeometry x="30" width="139" height="30" as="geometry">
            <mxRectangle width="139" height="30" as="alternateBounds" />
          </mxGeometry>
        </mxCell>
        <mxCell id="WVVUqtryo7cF9hxDMRjH-282" value="PRODUCT" style="shape=table;startSize=30;container=1;collapsible=1;childLayout=tableLayout;fixedRows=1;rowLines=0;fontStyle=1;align=center;resizeLast=1;fillColor=#fa6800;strokeColor=#C73500;fontColor=#000000;gradientColor=#ffffff;" parent="1" vertex="1">
          <mxGeometry x="2036" y="1384" width="169.5" height="135" as="geometry" />
        </mxCell>
        <mxCell id="WVVUqtryo7cF9hxDMRjH-283" value="" style="shape=tableRow;horizontal=0;startSize=0;swimlaneHead=0;swimlaneBody=0;fillColor=none;collapsible=0;dropTarget=0;points=[[0,0.5],[1,0.5]];portConstraint=eastwest;top=0;left=0;right=0;bottom=1;" parent="WVVUqtryo7cF9hxDMRjH-282" vertex="1">
          <mxGeometry y="30" width="169.5" height="25" as="geometry" />
        </mxCell>
        <mxCell id="WVVUqtryo7cF9hxDMRjH-284" value="PK" style="shape=partialRectangle;connectable=0;fillColor=none;top=0;left=0;bottom=0;right=0;fontStyle=1;overflow=hidden;" parent="WVVUqtryo7cF9hxDMRjH-283" vertex="1">
          <mxGeometry width="30" height="25" as="geometry">
            <mxRectangle width="30" height="25" as="alternateBounds" />
          </mxGeometry>
        </mxCell>
        <mxCell id="WVVUqtryo7cF9hxDMRjH-285" value="Product ID" style="shape=partialRectangle;connectable=0;fillColor=none;top=0;left=0;bottom=0;right=0;align=left;spacingLeft=6;fontStyle=5;overflow=hidden;" parent="WVVUqtryo7cF9hxDMRjH-283" vertex="1">
          <mxGeometry x="30" width="139.5" height="25" as="geometry">
            <mxRectangle width="139.5" height="25" as="alternateBounds" />
          </mxGeometry>
        </mxCell>
        <mxCell id="WVVUqtryo7cF9hxDMRjH-286" value="" style="shape=tableRow;horizontal=0;startSize=0;swimlaneHead=0;swimlaneBody=0;fillColor=none;collapsible=0;dropTarget=0;points=[[0,0.5],[1,0.5]];portConstraint=eastwest;top=0;left=0;right=0;bottom=0;" parent="WVVUqtryo7cF9hxDMRjH-282" vertex="1">
          <mxGeometry y="55" width="169.5" height="30" as="geometry" />
        </mxCell>
        <mxCell id="WVVUqtryo7cF9hxDMRjH-287" value="" style="shape=partialRectangle;connectable=0;fillColor=none;top=0;left=0;bottom=0;right=0;editable=1;overflow=hidden;" parent="WVVUqtryo7cF9hxDMRjH-286" vertex="1">
          <mxGeometry width="30" height="30" as="geometry">
            <mxRectangle width="30" height="30" as="alternateBounds" />
          </mxGeometry>
        </mxCell>
        <mxCell id="WVVUqtryo7cF9hxDMRjH-288" value="Product Description" style="shape=partialRectangle;connectable=0;fillColor=none;top=0;left=0;bottom=0;right=0;align=left;spacingLeft=6;overflow=hidden;fontStyle=0" parent="WVVUqtryo7cF9hxDMRjH-286" vertex="1">
          <mxGeometry x="30" width="139.5" height="30" as="geometry">
            <mxRectangle width="139.5" height="30" as="alternateBounds" />
          </mxGeometry>
        </mxCell>
        <mxCell id="WVVUqtryo7cF9hxDMRjH-289" value="" style="shape=tableRow;horizontal=0;startSize=0;swimlaneHead=0;swimlaneBody=0;fillColor=none;collapsible=0;dropTarget=0;points=[[0,0.5],[1,0.5]];portConstraint=eastwest;top=0;left=0;right=0;bottom=0;" parent="WVVUqtryo7cF9hxDMRjH-282" vertex="1">
          <mxGeometry y="85" width="169.5" height="20" as="geometry" />
        </mxCell>
        <mxCell id="WVVUqtryo7cF9hxDMRjH-290" value="" style="shape=partialRectangle;connectable=0;fillColor=none;top=0;left=0;bottom=0;right=0;editable=1;overflow=hidden;" parent="WVVUqtryo7cF9hxDMRjH-289" vertex="1">
          <mxGeometry width="30" height="20" as="geometry">
            <mxRectangle width="30" height="20" as="alternateBounds" />
          </mxGeometry>
        </mxCell>
        <mxCell id="WVVUqtryo7cF9hxDMRjH-291" value="Product Finish" style="shape=partialRectangle;connectable=0;fillColor=none;top=0;left=0;bottom=0;right=0;align=left;spacingLeft=6;overflow=hidden;" parent="WVVUqtryo7cF9hxDMRjH-289" vertex="1">
          <mxGeometry x="30" width="139.5" height="20" as="geometry">
            <mxRectangle width="139.5" height="20" as="alternateBounds" />
          </mxGeometry>
        </mxCell>
        <mxCell id="WVVUqtryo7cF9hxDMRjH-292" value="" style="shape=tableRow;horizontal=0;startSize=0;swimlaneHead=0;swimlaneBody=0;fillColor=none;collapsible=0;dropTarget=0;points=[[0,0.5],[1,0.5]];portConstraint=eastwest;top=0;left=0;right=0;bottom=0;" parent="WVVUqtryo7cF9hxDMRjH-282" vertex="1">
          <mxGeometry y="105" width="169.5" height="30" as="geometry" />
        </mxCell>
        <mxCell id="WVVUqtryo7cF9hxDMRjH-293" value="" style="shape=partialRectangle;connectable=0;fillColor=none;top=0;left=0;bottom=0;right=0;editable=1;overflow=hidden;" parent="WVVUqtryo7cF9hxDMRjH-292" vertex="1">
          <mxGeometry width="30" height="30" as="geometry">
            <mxRectangle width="30" height="30" as="alternateBounds" />
          </mxGeometry>
        </mxCell>
        <mxCell id="WVVUqtryo7cF9hxDMRjH-294" value="Product Standard Price" style="shape=partialRectangle;connectable=0;fillColor=none;top=0;left=0;bottom=0;right=0;align=left;spacingLeft=6;overflow=hidden;" parent="WVVUqtryo7cF9hxDMRjH-292" vertex="1">
          <mxGeometry x="30" width="139.5" height="30" as="geometry">
            <mxRectangle width="139.5" height="30" as="alternateBounds" />
          </mxGeometry>
        </mxCell>
        <mxCell id="WVVUqtryo7cF9hxDMRjH-295" value="USES" style="swimlane;childLayout=stackLayout;horizontal=1;startSize=30;horizontalStack=0;rounded=1;fontSize=14;fontStyle=0;strokeWidth=1;resizeParent=0;resizeLast=1;shadow=0;dashed=0;align=center;fillColor=#fa6800;gradientDirection=south;fontColor=#000000;strokeColor=#C73500;gradientColor=#ffffff;" parent="1" vertex="1">
          <mxGeometry x="2041" y="1098" width="160" height="120" as="geometry" />
        </mxCell>
        <mxCell id="WVVUqtryo7cF9hxDMRjH-296" value="Goes Into Quantity" style="align=left;strokeColor=none;fillColor=none;spacingLeft=4;fontSize=12;verticalAlign=top;resizable=0;rotatable=0;part=1;" parent="WVVUqtryo7cF9hxDMRjH-295" vertex="1">
          <mxGeometry y="30" width="160" height="90" as="geometry" />
        </mxCell>
        <mxCell id="WVVUqtryo7cF9hxDMRjH-297" value="" style="endArrow=ERoneToMany;html=1;rounded=0;targetPerimeterSpacing=0;strokeWidth=1;elbow=vertical;jumpStyle=line;entryX=0.011;entryY=0.449;entryDx=0;entryDy=0;entryPerimeter=0;startArrow=ERmandOne;startFill=0;endFill=0;" parent="1" target="WVVUqtryo7cF9hxDMRjH-296" edge="1">
          <mxGeometry relative="1" as="geometry">
            <mxPoint x="1827" y="1168" as="sourcePoint" />
            <mxPoint x="1987" y="1168" as="targetPoint" />
          </mxGeometry>
        </mxCell>
        <mxCell id="WVVUqtryo7cF9hxDMRjH-298" value="" style="endArrow=ERmandOne;html=1;rounded=0;strokeWidth=1;elbow=vertical;jumpStyle=line;entryX=0.5;entryY=0;entryDx=0;entryDy=0;exitX=0.5;exitY=1;exitDx=0;exitDy=0;endFill=0;startArrow=ERoneToMany;startFill=0;sourcePerimeterSpacing=0;" parent="1" source="WVVUqtryo7cF9hxDMRjH-295" target="WVVUqtryo7cF9hxDMRjH-282" edge="1">
          <mxGeometry relative="1" as="geometry">
            <mxPoint x="2121" y="1222" as="sourcePoint" />
            <mxPoint x="2120.6" y="1384" as="targetPoint" />
          </mxGeometry>
        </mxCell>
        <mxCell id="WVVUqtryo7cF9hxDMRjH-299" value="Fixed Entity" style="edgeLabel;html=1;align=center;verticalAlign=middle;resizable=0;points=[];" parent="1" vertex="1" connectable="0">
          <mxGeometry x="1686.9973536800917" y="1088.0047225886528" as="geometry" />
        </mxCell>
        <mxCell id="WVVUqtryo7cF9hxDMRjH-300" value="Fixed Entity" style="edgeLabel;html=1;align=center;verticalAlign=middle;resizable=0;points=[];" parent="1" vertex="1" connectable="0">
          <mxGeometry x="2179.9973536800917" y="1530.0047225886528" as="geometry" />
        </mxCell>
        <mxCell id="WVVUqtryo7cF9hxDMRjH-301" value="Associative Entity" style="edgeLabel;html=1;align=center;verticalAlign=middle;resizable=0;points=[];" parent="1" vertex="1" connectable="0">
          <mxGeometry x="2149.9973536800917" y="1088.0047225886528" as="geometry" />
        </mxCell>
        <mxCell id="WVVUqtryo7cF9hxDMRjH-302" value="Mandatory&amp;nbsp;&lt;br&gt;Many" style="edgeLabel;html=1;align=center;verticalAlign=middle;resizable=0;points=[];" parent="1" vertex="1" connectable="0">
          <mxGeometry x="1930.9999999999995" y="791.0030769230772" as="geometry" />
        </mxCell>
        <mxCell id="WVVUqtryo7cF9hxDMRjH-303" value="Mandatory&amp;nbsp;&lt;br&gt;One" style="edgeLabel;html=1;align=center;verticalAlign=middle;resizable=0;points=[];" parent="1" vertex="1" connectable="0">
          <mxGeometry x="2015" y="791.0046153846152" as="geometry" />
        </mxCell>
        <mxCell id="WVVUqtryo7cF9hxDMRjH-304" value="Mandatory&amp;nbsp;&lt;br&gt;One" style="edgeLabel;html=1;align=center;verticalAlign=middle;resizable=0;points=[];" parent="1" vertex="1" connectable="0">
          <mxGeometry x="1863" y="1144.0046153846151" as="geometry" />
        </mxCell>
        <mxCell id="WVVUqtryo7cF9hxDMRjH-305" value="Mandatory&amp;nbsp;&lt;br&gt;Many" style="edgeLabel;html=1;align=center;verticalAlign=middle;resizable=0;points=[];" parent="1" vertex="1" connectable="0">
          <mxGeometry x="2004.9999999999995" y="1194.003076923077" as="geometry" />
        </mxCell>
        <mxCell id="WVVUqtryo7cF9hxDMRjH-306" value="Mandatory&amp;nbsp;&lt;br&gt;Many" style="edgeLabel;html=1;align=center;verticalAlign=middle;resizable=0;points=[];" parent="1" vertex="1" connectable="0">
          <mxGeometry x="2159.9999999999995" y="1238.003076923077" as="geometry" />
        </mxCell>
        <mxCell id="WVVUqtryo7cF9hxDMRjH-307" value="Mandatory&amp;nbsp;&lt;br&gt;One" style="edgeLabel;html=1;align=center;verticalAlign=middle;resizable=0;points=[];" parent="1" vertex="1" connectable="0">
          <mxGeometry x="2084" y="1368.0046153846151" as="geometry" />
        </mxCell>
        <mxCell id="WVVUqtryo7cF9hxDMRjH-308" value="Optional&lt;br&gt;Many" style="edgeLabel;html=1;align=center;verticalAlign=middle;resizable=0;points=[];" parent="1" vertex="1" connectable="0">
          <mxGeometry x="1926.7499999999995" y="845.0027272727275" as="geometry" />
        </mxCell>
        <mxCell id="WVVUqtryo7cF9hxDMRjH-309" value="Optional&lt;br&gt;One" style="edgeLabel;html=1;align=center;verticalAlign=middle;resizable=0;points=[];" parent="1" vertex="1" connectable="0">
          <mxGeometry x="2011.4999999999995" y="845.0027272727275" as="geometry" />
        </mxCell>
        <mxCell id="WVVUqtryo7cF9hxDMRjH-310" value="PRODUCT" style="shape=table;startSize=30;container=1;collapsible=1;childLayout=tableLayout;fixedRows=1;rowLines=0;fontStyle=1;align=center;resizeLast=1;fillColor=#fa6800;strokeColor=#C73500;fontColor=#000000;gradientColor=#ffffff;" parent="1" vertex="1">
          <mxGeometry x="2421" y="648" width="169.5" height="135" as="geometry" />
        </mxCell>
        <mxCell id="WVVUqtryo7cF9hxDMRjH-311" value="" style="shape=tableRow;horizontal=0;startSize=0;swimlaneHead=0;swimlaneBody=0;fillColor=none;collapsible=0;dropTarget=0;points=[[0,0.5],[1,0.5]];portConstraint=eastwest;top=0;left=0;right=0;bottom=1;" parent="WVVUqtryo7cF9hxDMRjH-310" vertex="1">
          <mxGeometry y="30" width="169.5" height="25" as="geometry" />
        </mxCell>
        <mxCell id="WVVUqtryo7cF9hxDMRjH-312" value="PK" style="shape=partialRectangle;connectable=0;fillColor=none;top=0;left=0;bottom=0;right=0;fontStyle=1;overflow=hidden;" parent="WVVUqtryo7cF9hxDMRjH-311" vertex="1">
          <mxGeometry width="30" height="25" as="geometry">
            <mxRectangle width="30" height="25" as="alternateBounds" />
          </mxGeometry>
        </mxCell>
        <mxCell id="WVVUqtryo7cF9hxDMRjH-313" value="Product ID" style="shape=partialRectangle;connectable=0;fillColor=none;top=0;left=0;bottom=0;right=0;align=left;spacingLeft=6;fontStyle=5;overflow=hidden;" parent="WVVUqtryo7cF9hxDMRjH-311" vertex="1">
          <mxGeometry x="30" width="139.5" height="25" as="geometry">
            <mxRectangle width="139.5" height="25" as="alternateBounds" />
          </mxGeometry>
        </mxCell>
        <mxCell id="WVVUqtryo7cF9hxDMRjH-314" value="" style="shape=tableRow;horizontal=0;startSize=0;swimlaneHead=0;swimlaneBody=0;fillColor=none;collapsible=0;dropTarget=0;points=[[0,0.5],[1,0.5]];portConstraint=eastwest;top=0;left=0;right=0;bottom=0;" parent="WVVUqtryo7cF9hxDMRjH-310" vertex="1">
          <mxGeometry y="55" width="169.5" height="30" as="geometry" />
        </mxCell>
        <mxCell id="WVVUqtryo7cF9hxDMRjH-315" value="" style="shape=partialRectangle;connectable=0;fillColor=none;top=0;left=0;bottom=0;right=0;editable=1;overflow=hidden;" parent="WVVUqtryo7cF9hxDMRjH-314" vertex="1">
          <mxGeometry width="30" height="30" as="geometry">
            <mxRectangle width="30" height="30" as="alternateBounds" />
          </mxGeometry>
        </mxCell>
        <mxCell id="WVVUqtryo7cF9hxDMRjH-316" value="Product Description" style="shape=partialRectangle;connectable=0;fillColor=none;top=0;left=0;bottom=0;right=0;align=left;spacingLeft=6;overflow=hidden;fontStyle=0" parent="WVVUqtryo7cF9hxDMRjH-314" vertex="1">
          <mxGeometry x="30" width="139.5" height="30" as="geometry">
            <mxRectangle width="139.5" height="30" as="alternateBounds" />
          </mxGeometry>
        </mxCell>
        <mxCell id="WVVUqtryo7cF9hxDMRjH-317" value="" style="shape=tableRow;horizontal=0;startSize=0;swimlaneHead=0;swimlaneBody=0;fillColor=none;collapsible=0;dropTarget=0;points=[[0,0.5],[1,0.5]];portConstraint=eastwest;top=0;left=0;right=0;bottom=0;" parent="WVVUqtryo7cF9hxDMRjH-310" vertex="1">
          <mxGeometry y="85" width="169.5" height="20" as="geometry" />
        </mxCell>
        <mxCell id="WVVUqtryo7cF9hxDMRjH-318" value="" style="shape=partialRectangle;connectable=0;fillColor=none;top=0;left=0;bottom=0;right=0;editable=1;overflow=hidden;" parent="WVVUqtryo7cF9hxDMRjH-317" vertex="1">
          <mxGeometry width="30" height="20" as="geometry">
            <mxRectangle width="30" height="20" as="alternateBounds" />
          </mxGeometry>
        </mxCell>
        <mxCell id="WVVUqtryo7cF9hxDMRjH-319" value="Product Finish" style="shape=partialRectangle;connectable=0;fillColor=none;top=0;left=0;bottom=0;right=0;align=left;spacingLeft=6;overflow=hidden;" parent="WVVUqtryo7cF9hxDMRjH-317" vertex="1">
          <mxGeometry x="30" width="139.5" height="20" as="geometry">
            <mxRectangle width="139.5" height="20" as="alternateBounds" />
          </mxGeometry>
        </mxCell>
        <mxCell id="WVVUqtryo7cF9hxDMRjH-320" value="" style="shape=tableRow;horizontal=0;startSize=0;swimlaneHead=0;swimlaneBody=0;fillColor=none;collapsible=0;dropTarget=0;points=[[0,0.5],[1,0.5]];portConstraint=eastwest;top=0;left=0;right=0;bottom=0;" parent="WVVUqtryo7cF9hxDMRjH-310" vertex="1">
          <mxGeometry y="105" width="169.5" height="30" as="geometry" />
        </mxCell>
        <mxCell id="WVVUqtryo7cF9hxDMRjH-321" value="" style="shape=partialRectangle;connectable=0;fillColor=none;top=0;left=0;bottom=0;right=0;editable=1;overflow=hidden;" parent="WVVUqtryo7cF9hxDMRjH-320" vertex="1">
          <mxGeometry width="30" height="30" as="geometry">
            <mxRectangle width="30" height="30" as="alternateBounds" />
          </mxGeometry>
        </mxCell>
        <mxCell id="WVVUqtryo7cF9hxDMRjH-322" value="Product Standard Price" style="shape=partialRectangle;connectable=0;fillColor=none;top=0;left=0;bottom=0;right=0;align=left;spacingLeft=6;overflow=hidden;" parent="WVVUqtryo7cF9hxDMRjH-320" vertex="1">
          <mxGeometry x="30" width="139.5" height="30" as="geometry">
            <mxRectangle width="139.5" height="30" as="alternateBounds" />
          </mxGeometry>
        </mxCell>
        <mxCell id="WVVUqtryo7cF9hxDMRjH-323" value="WORK CENTER" style="shape=table;startSize=29;container=1;collapsible=1;childLayout=tableLayout;fixedRows=1;rowLines=0;fontStyle=1;align=center;resizeLast=1;fillColor=#fa6800;strokeColor=#C73500;fontColor=#000000;gradientColor=#ffffff;" parent="1" vertex="1">
          <mxGeometry x="2732" y="981" width="169.5" height="85" as="geometry" />
        </mxCell>
        <mxCell id="WVVUqtryo7cF9hxDMRjH-324" value="" style="shape=tableRow;horizontal=0;startSize=0;swimlaneHead=0;swimlaneBody=0;fillColor=none;collapsible=0;dropTarget=0;points=[[0,0.5],[1,0.5]];portConstraint=eastwest;top=0;left=0;right=0;bottom=1;" parent="WVVUqtryo7cF9hxDMRjH-323" vertex="1">
          <mxGeometry y="29" width="169.5" height="25" as="geometry" />
        </mxCell>
        <mxCell id="WVVUqtryo7cF9hxDMRjH-325" value="PK" style="shape=partialRectangle;connectable=0;fillColor=none;top=0;left=0;bottom=0;right=0;fontStyle=1;overflow=hidden;" parent="WVVUqtryo7cF9hxDMRjH-324" vertex="1">
          <mxGeometry width="30" height="25" as="geometry">
            <mxRectangle width="30" height="25" as="alternateBounds" />
          </mxGeometry>
        </mxCell>
        <mxCell id="WVVUqtryo7cF9hxDMRjH-326" value="Work Center ID" style="shape=partialRectangle;connectable=0;fillColor=none;top=0;left=0;bottom=0;right=0;align=left;spacingLeft=6;fontStyle=5;overflow=hidden;" parent="WVVUqtryo7cF9hxDMRjH-324" vertex="1">
          <mxGeometry x="30" width="139.5" height="25" as="geometry">
            <mxRectangle width="139.5" height="25" as="alternateBounds" />
          </mxGeometry>
        </mxCell>
        <mxCell id="WVVUqtryo7cF9hxDMRjH-327" value="" style="shape=tableRow;horizontal=0;startSize=0;swimlaneHead=0;swimlaneBody=0;fillColor=none;collapsible=0;dropTarget=0;points=[[0,0.5],[1,0.5]];portConstraint=eastwest;top=0;left=0;right=0;bottom=0;" parent="WVVUqtryo7cF9hxDMRjH-323" vertex="1">
          <mxGeometry y="54" width="169.5" height="30" as="geometry" />
        </mxCell>
        <mxCell id="WVVUqtryo7cF9hxDMRjH-328" value="" style="shape=partialRectangle;connectable=0;fillColor=none;top=0;left=0;bottom=0;right=0;editable=1;overflow=hidden;" parent="WVVUqtryo7cF9hxDMRjH-327" vertex="1">
          <mxGeometry width="30" height="30" as="geometry">
            <mxRectangle width="30" height="30" as="alternateBounds" />
          </mxGeometry>
        </mxCell>
        <mxCell id="WVVUqtryo7cF9hxDMRjH-329" value="Work Center Location" style="shape=partialRectangle;connectable=0;fillColor=none;top=0;left=0;bottom=0;right=0;align=left;spacingLeft=6;overflow=hidden;fontStyle=0" parent="WVVUqtryo7cF9hxDMRjH-327" vertex="1">
          <mxGeometry x="30" width="139.5" height="30" as="geometry">
            <mxRectangle width="139.5" height="30" as="alternateBounds" />
          </mxGeometry>
        </mxCell>
        <mxCell id="WVVUqtryo7cF9hxDMRjH-336" value="PRODUCED IN" style="swimlane;childLayout=stackLayout;horizontal=1;startSize=30;horizontalStack=0;rounded=1;fontSize=14;fontStyle=1;strokeWidth=1;resizeParent=0;resizeLast=1;shadow=0;dashed=0;align=center;fillColor=#fa6800;gradientDirection=south;fontColor=#000000;strokeColor=#C73500;gradientColor=#ffffff;" parent="1" vertex="1">
          <mxGeometry x="2786" y="658" width="147" height="64" as="geometry" />
        </mxCell>
        <mxCell id="WVVUqtryo7cF9hxDMRjH-338" value="" style="endArrow=ERmany;html=1;rounded=0;targetPerimeterSpacing=0;strokeWidth=1;elbow=vertical;jumpStyle=line;startArrow=ERmandOne;startFill=0;endFill=0;" parent="1" edge="1">
          <mxGeometry relative="1" as="geometry">
            <mxPoint x="2590.5" y="694" as="sourcePoint" />
            <mxPoint x="2786" y="694" as="targetPoint" />
          </mxGeometry>
        </mxCell>
        <mxCell id="WVVUqtryo7cF9hxDMRjH-339" value="" style="endArrow=ERmandOne;html=1;rounded=0;targetPerimeterSpacing=0;strokeWidth=1;elbow=vertical;jumpStyle=line;exitX=0.5;exitY=1;exitDx=0;exitDy=0;startArrow=ERzeroToMany;startFill=0;endFill=0;" parent="1" source="WVVUqtryo7cF9hxDMRjH-336" edge="1">
          <mxGeometry relative="1" as="geometry">
            <mxPoint x="2705" y="825" as="sourcePoint" />
            <mxPoint x="2896" y="882" as="targetPoint" />
          </mxGeometry>
        </mxCell>
        <mxCell id="WVVUqtryo7cF9hxDMRjH-340" value="Fixed Entity" style="edgeLabel;html=1;align=center;verticalAlign=middle;resizable=0;points=[];" parent="1" vertex="1" connectable="0">
          <mxGeometry x="1926.7473536800917" y="903.0047225886528" as="geometry" />
        </mxCell>
        <mxCell id="WVVUqtryo7cF9hxDMRjH-341" value="Associative Entity" style="edgeLabel;html=1;align=center;verticalAlign=middle;resizable=0;points=[];" parent="1" vertex="1" connectable="0">
          <mxGeometry x="2018.9973536800917" y="903.0047225886528" as="geometry" />
        </mxCell>
        <mxCell id="WVVUqtryo7cF9hxDMRjH-342" value="Associative Entity" style="edgeLabel;html=1;align=center;verticalAlign=middle;resizable=0;points=[];" parent="1" vertex="1" connectable="0">
          <mxGeometry x="2884.9973536800917" y="645.0047225886528" as="geometry" />
        </mxCell>
        <mxCell id="WVVUqtryo7cF9hxDMRjH-343" value="Fixed Entity" style="edgeLabel;html=1;align=center;verticalAlign=middle;resizable=0;points=[];" parent="1" vertex="1" connectable="0">
          <mxGeometry x="2871.9973536800917" y="967.0047225886528" as="geometry" />
        </mxCell>
        <mxCell id="WVVUqtryo7cF9hxDMRjH-344" value="Fixed Entity" style="edgeLabel;html=1;align=center;verticalAlign=middle;resizable=0;points=[];" parent="1" vertex="1" connectable="0">
          <mxGeometry x="2450.9973536800917" y="638.0047225886528" as="geometry" />
        </mxCell>
        <mxCell id="WVVUqtryo7cF9hxDMRjH-345" value="Mandatory&amp;nbsp;&lt;br&gt;One" style="edgeLabel;html=1;align=center;verticalAlign=middle;resizable=0;points=[];" parent="1" vertex="1" connectable="0">
          <mxGeometry x="3108" y="848.0046153846152" as="geometry" />
        </mxCell>
        <mxCell id="WVVUqtryo7cF9hxDMRjH-346" value="Mandatory&amp;nbsp;&lt;br&gt;One" style="edgeLabel;html=1;align=center;verticalAlign=middle;resizable=0;points=[];" parent="1" vertex="1" connectable="0">
          <mxGeometry x="2621" y="715.5046153846152" as="geometry" />
        </mxCell>
        <mxCell id="WVVUqtryo7cF9hxDMRjH-347" value="Optional&lt;br&gt;Many" style="edgeLabel;html=1;align=center;verticalAlign=middle;resizable=0;points=[];" parent="1" vertex="1" connectable="0">
          <mxGeometry x="2892.9999999999995" y="744.0027272727275" as="geometry" />
        </mxCell>
        <mxCell id="WVVUqtryo7cF9hxDMRjH-348" value="Many" style="edgeLabel;html=1;align=center;verticalAlign=middle;resizable=0;points=[];" parent="1" vertex="1" connectable="0">
          <mxGeometry x="1975.9999999999995" y="859.0027272727275" as="geometry">
            <mxPoint x="790" y="-187" as="offset" />
          </mxGeometry>
        </mxCell>
        <mxCell id="WVVUqtryo7cF9hxDMRjH-349" value="EMPLOYEE" style="shape=table;startSize=30;container=1;collapsible=1;childLayout=tableLayout;fixedRows=1;rowLines=0;fontStyle=1;align=center;resizeLast=1;fillColor=#fa6800;fontColor=#000000;strokeColor=#C73500;gradientColor=#ffffff;gradientDirection=south;" parent="1" vertex="1">
          <mxGeometry x="3283" y="935" width="181" height="120" as="geometry" />
        </mxCell>
        <mxCell id="WVVUqtryo7cF9hxDMRjH-350" value="" style="shape=tableRow;horizontal=0;startSize=0;swimlaneHead=0;swimlaneBody=0;fillColor=none;collapsible=0;dropTarget=0;points=[[0,0.5],[1,0.5]];portConstraint=eastwest;top=0;left=0;right=0;bottom=1;" parent="WVVUqtryo7cF9hxDMRjH-349" vertex="1">
          <mxGeometry y="30" width="181" height="30" as="geometry" />
        </mxCell>
        <mxCell id="WVVUqtryo7cF9hxDMRjH-351" value="PK" style="shape=partialRectangle;connectable=0;fillColor=none;top=0;left=0;bottom=0;right=0;fontStyle=1;overflow=hidden;" parent="WVVUqtryo7cF9hxDMRjH-350" vertex="1">
          <mxGeometry width="30" height="30" as="geometry">
            <mxRectangle width="30" height="30" as="alternateBounds" />
          </mxGeometry>
        </mxCell>
        <mxCell id="WVVUqtryo7cF9hxDMRjH-352" value="EmployeeID" style="shape=partialRectangle;connectable=0;fillColor=none;top=0;left=0;bottom=0;right=0;align=left;spacingLeft=6;fontStyle=5;overflow=hidden;" parent="WVVUqtryo7cF9hxDMRjH-350" vertex="1">
          <mxGeometry x="30" width="151" height="30" as="geometry">
            <mxRectangle width="151" height="30" as="alternateBounds" />
          </mxGeometry>
        </mxCell>
        <mxCell id="WVVUqtryo7cF9hxDMRjH-353" value="" style="shape=tableRow;horizontal=0;startSize=0;swimlaneHead=0;swimlaneBody=0;fillColor=none;collapsible=0;dropTarget=0;points=[[0,0.5],[1,0.5]];portConstraint=eastwest;top=0;left=0;right=0;bottom=0;" parent="WVVUqtryo7cF9hxDMRjH-349" vertex="1">
          <mxGeometry y="60" width="181" height="30" as="geometry" />
        </mxCell>
        <mxCell id="WVVUqtryo7cF9hxDMRjH-354" value="" style="shape=partialRectangle;connectable=0;fillColor=none;top=0;left=0;bottom=0;right=0;editable=1;overflow=hidden;" parent="WVVUqtryo7cF9hxDMRjH-353" vertex="1">
          <mxGeometry width="30" height="30" as="geometry">
            <mxRectangle width="30" height="30" as="alternateBounds" />
          </mxGeometry>
        </mxCell>
        <mxCell id="WVVUqtryo7cF9hxDMRjH-355" value="Employee Name" style="shape=partialRectangle;connectable=0;fillColor=none;top=0;left=0;bottom=0;right=0;align=left;spacingLeft=6;overflow=hidden;" parent="WVVUqtryo7cF9hxDMRjH-353" vertex="1">
          <mxGeometry x="30" width="151" height="30" as="geometry">
            <mxRectangle width="151" height="30" as="alternateBounds" />
          </mxGeometry>
        </mxCell>
        <mxCell id="WVVUqtryo7cF9hxDMRjH-356" value="" style="shape=tableRow;horizontal=0;startSize=0;swimlaneHead=0;swimlaneBody=0;fillColor=none;collapsible=0;dropTarget=0;points=[[0,0.5],[1,0.5]];portConstraint=eastwest;top=0;left=0;right=0;bottom=0;" parent="WVVUqtryo7cF9hxDMRjH-349" vertex="1">
          <mxGeometry y="90" width="181" height="30" as="geometry" />
        </mxCell>
        <mxCell id="WVVUqtryo7cF9hxDMRjH-357" value="" style="shape=partialRectangle;connectable=0;fillColor=none;top=0;left=0;bottom=0;right=0;editable=1;overflow=hidden;" parent="WVVUqtryo7cF9hxDMRjH-356" vertex="1">
          <mxGeometry width="30" height="30" as="geometry">
            <mxRectangle width="30" height="30" as="alternateBounds" />
          </mxGeometry>
        </mxCell>
        <mxCell id="WVVUqtryo7cF9hxDMRjH-358" value="Employee Address" style="shape=partialRectangle;connectable=0;fillColor=none;top=0;left=0;bottom=0;right=0;align=left;spacingLeft=6;overflow=hidden;" parent="WVVUqtryo7cF9hxDMRjH-356" vertex="1">
          <mxGeometry x="30" width="151" height="30" as="geometry">
            <mxRectangle width="151" height="30" as="alternateBounds" />
          </mxGeometry>
        </mxCell>
        <mxCell id="WVVUqtryo7cF9hxDMRjH-359" value="" style="edgeStyle=orthogonalEdgeStyle;fontSize=12;html=1;endArrow=ERzeroToMany;startArrow=ERzeroToOne;rounded=0;dashed=1;jumpStyle=line;strokeWidth=1;targetPerimeterSpacing=0;elbow=vertical;entryX=1.007;entryY=0.824;entryDx=0;entryDy=0;entryPerimeter=0;" parent="1" target="WVVUqtryo7cF9hxDMRjH-353" edge="1">
          <mxGeometry width="100" height="100" relative="1" as="geometry">
            <mxPoint x="3465" y="959" as="sourcePoint" />
            <mxPoint x="3642" y="1028" as="targetPoint" />
            <Array as="points">
              <mxPoint x="3535" y="959" />
              <mxPoint x="3535" y="1020" />
            </Array>
          </mxGeometry>
        </mxCell>
        <mxCell id="WVVUqtryo7cF9hxDMRjH-376" value="Is Supervised By" style="edgeLabel;html=1;align=center;verticalAlign=middle;resizable=0;points=[];fontSize=12;rotation=90;" parent="WVVUqtryo7cF9hxDMRjH-359" vertex="1" connectable="0">
          <mxGeometry x="-0.0672" relative="1" as="geometry">
            <mxPoint x="13" y="5" as="offset" />
          </mxGeometry>
        </mxCell>
        <mxCell id="WVVUqtryo7cF9hxDMRjH-363" value="Fixed Entity" style="edgeLabel;html=1;align=center;verticalAlign=middle;resizable=0;points=[];" parent="1" vertex="1" connectable="0">
          <mxGeometry x="3211.9973536800917" y="1152.0047225886528" as="geometry" />
        </mxCell>
        <mxCell id="WVVUqtryo7cF9hxDMRjH-364" value="WORKS IN" style="swimlane;childLayout=stackLayout;horizontal=1;startSize=30;horizontalStack=0;rounded=1;fontSize=12;fontStyle=1;strokeWidth=1;resizeParent=0;resizeLast=1;shadow=0;dashed=0;align=center;fillColor=#fa6800;gradientDirection=south;fontColor=#000000;strokeColor=#C73500;gradientColor=#ffffff;" parent="1" vertex="1">
          <mxGeometry x="2743.25" y="1206" width="147" height="64" as="geometry" />
        </mxCell>
        <mxCell id="WVVUqtryo7cF9hxDMRjH-365" value="Associative Entity" style="edgeLabel;html=1;align=center;verticalAlign=middle;resizable=0;points=[];" parent="1" vertex="1" connectable="0">
          <mxGeometry x="2731.9973536800917" y="1198.0047225886528" as="geometry" />
        </mxCell>
        <mxCell id="WVVUqtryo7cF9hxDMRjH-368" value="" style="endArrow=ERmandOne;html=1;rounded=0;fontSize=12;strokeWidth=1;elbow=vertical;jumpStyle=line;startArrow=ERoneToMany;startFill=0;endFill=0;entryX=0.5;entryY=1;entryDx=0;entryDy=0;sourcePerimeterSpacing=0;" parent="1" source="WVVUqtryo7cF9hxDMRjH-364" target="WVVUqtryo7cF9hxDMRjH-323" edge="1">
          <mxGeometry relative="1" as="geometry">
            <mxPoint x="2953" y="1107" as="sourcePoint" />
            <mxPoint x="2793" y="1107" as="targetPoint" />
          </mxGeometry>
        </mxCell>
        <mxCell id="WVVUqtryo7cF9hxDMRjH-369" value="" style="endArrow=ERmandOne;html=1;rounded=0;fontSize=12;targetPerimeterSpacing=0;strokeWidth=1;elbow=vertical;jumpStyle=line;endFill=0;startArrow=ERzeroToMany;startFill=0;" parent="1" edge="1">
          <mxGeometry relative="1" as="geometry">
            <mxPoint x="2890.25" y="1245" as="sourcePoint" />
            <mxPoint x="3058" y="1245" as="targetPoint" />
          </mxGeometry>
        </mxCell>
        <mxCell id="WVVUqtryo7cF9hxDMRjH-370" value="Mandatory&amp;nbsp;&lt;br&gt;Many" style="edgeLabel;html=1;align=center;verticalAlign=middle;resizable=0;points=[];" parent="1" vertex="1" connectable="0">
          <mxGeometry x="2850.9999999999995" y="1187.003076923077" as="geometry" />
        </mxCell>
        <mxCell id="WVVUqtryo7cF9hxDMRjH-371" value="Optional&lt;br&gt;Many" style="edgeLabel;html=1;align=center;verticalAlign=middle;resizable=0;points=[];" parent="1" vertex="1" connectable="0">
          <mxGeometry x="2916.9999999999995" y="1265.0027272727275" as="geometry" />
        </mxCell>
        <mxCell id="WVVUqtryo7cF9hxDMRjH-372" value="Mandatory&amp;nbsp;&lt;br&gt;One" style="edgeLabel;html=1;align=center;verticalAlign=middle;resizable=0;points=[];" parent="1" vertex="1" connectable="0">
          <mxGeometry x="2786" y="1082.0046153846151" as="geometry" />
        </mxCell>
        <mxCell id="WVVUqtryo7cF9hxDMRjH-373" value="Mandatory&amp;nbsp;&lt;br&gt;One" style="edgeLabel;html=1;align=center;verticalAlign=middle;resizable=0;points=[];" parent="1" vertex="1" connectable="0">
          <mxGeometry x="3027" y="1226.0046153846151" as="geometry" />
        </mxCell>
        <mxCell id="WVVUqtryo7cF9hxDMRjH-374" value="Optional&lt;br&gt;Many" style="edgeLabel;html=1;align=center;verticalAlign=middle;resizable=0;points=[];" parent="1" vertex="1" connectable="0">
          <mxGeometry x="3494.9999999999995" y="1038.0027272727275" as="geometry" />
        </mxCell>
        <mxCell id="WVVUqtryo7cF9hxDMRjH-375" value="Optional&lt;br&gt;One" style="edgeLabel;html=1;align=center;verticalAlign=middle;resizable=0;points=[];" parent="1" vertex="1" connectable="0">
          <mxGeometry x="3494.9999999999995" y="939.0027272727275" as="geometry" />
        </mxCell>
        <mxCell id="WVVUqtryo7cF9hxDMRjH-377" value="STUDENT" style="shape=table;startSize=30;container=1;collapsible=1;childLayout=tableLayout;fixedRows=1;rowLines=0;fontStyle=1;align=center;resizeLast=1;fontSize=12;strokeWidth=1;fillColor=#fa6800;gradientDirection=south;fontColor=#000000;strokeColor=#C73500;gradientColor=#ffffff;" parent="1" vertex="1">
          <mxGeometry x="-942" y="1892" width="176" height="150" as="geometry" />
        </mxCell>
        <mxCell id="WVVUqtryo7cF9hxDMRjH-378" value="" style="shape=tableRow;horizontal=0;startSize=0;swimlaneHead=0;swimlaneBody=0;fillColor=none;collapsible=0;dropTarget=0;points=[[0,0.5],[1,0.5]];portConstraint=eastwest;top=0;left=0;right=0;bottom=1;fontSize=12;strokeWidth=1;" parent="WVVUqtryo7cF9hxDMRjH-377" vertex="1">
          <mxGeometry y="30" width="176" height="30" as="geometry" />
        </mxCell>
        <mxCell id="WVVUqtryo7cF9hxDMRjH-379" value="PK" style="shape=partialRectangle;connectable=0;fillColor=none;top=0;left=0;bottom=0;right=0;fontStyle=1;overflow=hidden;fontSize=12;strokeWidth=1;" parent="WVVUqtryo7cF9hxDMRjH-378" vertex="1">
          <mxGeometry width="30" height="30" as="geometry">
            <mxRectangle width="30" height="30" as="alternateBounds" />
          </mxGeometry>
        </mxCell>
        <mxCell id="WVVUqtryo7cF9hxDMRjH-380" value="Student Name" style="shape=partialRectangle;connectable=0;fillColor=none;top=0;left=0;bottom=0;right=0;align=left;spacingLeft=6;fontStyle=5;overflow=hidden;fontSize=12;strokeWidth=1;" parent="WVVUqtryo7cF9hxDMRjH-378" vertex="1">
          <mxGeometry x="30" width="146" height="30" as="geometry">
            <mxRectangle width="146" height="30" as="alternateBounds" />
          </mxGeometry>
        </mxCell>
        <mxCell id="WVVUqtryo7cF9hxDMRjH-381" value="" style="shape=tableRow;horizontal=0;startSize=0;swimlaneHead=0;swimlaneBody=0;fillColor=none;collapsible=0;dropTarget=0;points=[[0,0.5],[1,0.5]];portConstraint=eastwest;top=0;left=0;right=0;bottom=0;fontSize=12;strokeWidth=1;" parent="WVVUqtryo7cF9hxDMRjH-377" vertex="1">
          <mxGeometry y="60" width="176" height="30" as="geometry" />
        </mxCell>
        <mxCell id="WVVUqtryo7cF9hxDMRjH-382" value="" style="shape=partialRectangle;connectable=0;fillColor=none;top=0;left=0;bottom=0;right=0;editable=1;overflow=hidden;fontSize=12;strokeWidth=1;" parent="WVVUqtryo7cF9hxDMRjH-381" vertex="1">
          <mxGeometry width="30" height="30" as="geometry">
            <mxRectangle width="30" height="30" as="alternateBounds" />
          </mxGeometry>
        </mxCell>
        <mxCell id="WVVUqtryo7cF9hxDMRjH-383" value="Student Number" style="shape=partialRectangle;connectable=0;fillColor=none;top=0;left=0;bottom=0;right=0;align=left;spacingLeft=6;overflow=hidden;fontSize=12;strokeWidth=1;" parent="WVVUqtryo7cF9hxDMRjH-381" vertex="1">
          <mxGeometry x="30" width="146" height="30" as="geometry">
            <mxRectangle width="146" height="30" as="alternateBounds" />
          </mxGeometry>
        </mxCell>
        <mxCell id="WVVUqtryo7cF9hxDMRjH-384" value="" style="shape=tableRow;horizontal=0;startSize=0;swimlaneHead=0;swimlaneBody=0;fillColor=none;collapsible=0;dropTarget=0;points=[[0,0.5],[1,0.5]];portConstraint=eastwest;top=0;left=0;right=0;bottom=0;fontSize=12;strokeWidth=1;" parent="WVVUqtryo7cF9hxDMRjH-377" vertex="1">
          <mxGeometry y="90" width="176" height="30" as="geometry" />
        </mxCell>
        <mxCell id="WVVUqtryo7cF9hxDMRjH-385" value="" style="shape=partialRectangle;connectable=0;fillColor=none;top=0;left=0;bottom=0;right=0;editable=1;overflow=hidden;fontSize=12;strokeWidth=1;" parent="WVVUqtryo7cF9hxDMRjH-384" vertex="1">
          <mxGeometry width="30" height="30" as="geometry">
            <mxRectangle width="30" height="30" as="alternateBounds" />
          </mxGeometry>
        </mxCell>
        <mxCell id="WVVUqtryo7cF9hxDMRjH-386" value="Student Address" style="shape=partialRectangle;connectable=0;fillColor=none;top=0;left=0;bottom=0;right=0;align=left;spacingLeft=6;overflow=hidden;fontSize=12;strokeWidth=1;" parent="WVVUqtryo7cF9hxDMRjH-384" vertex="1">
          <mxGeometry x="30" width="146" height="30" as="geometry">
            <mxRectangle width="146" height="30" as="alternateBounds" />
          </mxGeometry>
        </mxCell>
        <mxCell id="WVVUqtryo7cF9hxDMRjH-387" value="" style="shape=tableRow;horizontal=0;startSize=0;swimlaneHead=0;swimlaneBody=0;fillColor=none;collapsible=0;dropTarget=0;points=[[0,0.5],[1,0.5]];portConstraint=eastwest;top=0;left=0;right=0;bottom=0;fontSize=12;strokeWidth=1;" parent="WVVUqtryo7cF9hxDMRjH-377" vertex="1">
          <mxGeometry y="120" width="176" height="30" as="geometry" />
        </mxCell>
        <mxCell id="WVVUqtryo7cF9hxDMRjH-388" value="" style="shape=partialRectangle;connectable=0;fillColor=none;top=0;left=0;bottom=0;right=0;editable=1;overflow=hidden;fontSize=12;strokeWidth=1;" parent="WVVUqtryo7cF9hxDMRjH-387" vertex="1">
          <mxGeometry width="30" height="30" as="geometry">
            <mxRectangle width="30" height="30" as="alternateBounds" />
          </mxGeometry>
        </mxCell>
        <mxCell id="WVVUqtryo7cF9hxDMRjH-389" value="Student Age" style="shape=partialRectangle;connectable=0;fillColor=none;top=0;left=0;bottom=0;right=0;align=left;spacingLeft=6;overflow=hidden;fontSize=12;strokeWidth=1;" parent="WVVUqtryo7cF9hxDMRjH-387" vertex="1">
          <mxGeometry x="30" width="146" height="30" as="geometry">
            <mxRectangle width="146" height="30" as="alternateBounds" />
          </mxGeometry>
        </mxCell>
        <mxCell id="WVVUqtryo7cF9hxDMRjH-390" value="ACTIVITY" style="shape=table;startSize=30;container=1;collapsible=1;childLayout=tableLayout;fixedRows=1;rowLines=0;fontStyle=1;align=center;resizeLast=1;fontSize=12;strokeWidth=1;fillColor=#fa6800;gradientDirection=south;fontColor=#000000;strokeColor=#C73500;gradientColor=#ffffff;" parent="1" vertex="1">
          <mxGeometry x="-593.5" y="2178" width="180" height="70" as="geometry" />
        </mxCell>
        <mxCell id="WVVUqtryo7cF9hxDMRjH-391" value="" style="shape=tableRow;horizontal=0;startSize=0;swimlaneHead=0;swimlaneBody=0;fillColor=none;collapsible=0;dropTarget=0;points=[[0,0.5],[1,0.5]];portConstraint=eastwest;top=0;left=0;right=0;bottom=1;fontSize=12;strokeWidth=1;" parent="WVVUqtryo7cF9hxDMRjH-390" vertex="1">
          <mxGeometry y="30" width="180" height="30" as="geometry" />
        </mxCell>
        <mxCell id="WVVUqtryo7cF9hxDMRjH-392" value="PK" style="shape=partialRectangle;connectable=0;fillColor=none;top=0;left=0;bottom=0;right=0;fontStyle=1;overflow=hidden;fontSize=12;strokeWidth=1;" parent="WVVUqtryo7cF9hxDMRjH-391" vertex="1">
          <mxGeometry width="30" height="30" as="geometry">
            <mxRectangle width="30" height="30" as="alternateBounds" />
          </mxGeometry>
        </mxCell>
        <mxCell id="WVVUqtryo7cF9hxDMRjH-393" value="Activity Name" style="shape=partialRectangle;connectable=0;fillColor=none;top=0;left=0;bottom=0;right=0;align=left;spacingLeft=6;fontStyle=5;overflow=hidden;fontSize=12;strokeWidth=1;" parent="WVVUqtryo7cF9hxDMRjH-391" vertex="1">
          <mxGeometry x="30" width="150" height="30" as="geometry">
            <mxRectangle width="150" height="30" as="alternateBounds" />
          </mxGeometry>
        </mxCell>
        <mxCell id="WVVUqtryo7cF9hxDMRjH-403" value="STUDENT &#xa;ENGAGEMENT" style="swimlane;childLayout=stackLayout;horizontal=1;startSize=30;horizontalStack=0;rounded=1;fontSize=12;fontStyle=1;strokeWidth=1;resizeParent=0;resizeLast=1;shadow=0;dashed=0;align=center;fillColor=#fa6800;gradientDirection=south;fontColor=#000000;strokeColor=#C73500;gradientColor=#ffffff;" parent="1" vertex="1">
          <mxGeometry x="-606" y="1892" width="205" height="159" as="geometry" />
        </mxCell>
        <mxCell id="WVVUqtryo7cF9hxDMRjH-413" value="" style="shape=table;startSize=0;container=1;collapsible=1;childLayout=tableLayout;fixedRows=1;rowLines=0;fontStyle=0;align=center;resizeLast=1;strokeColor=none;fillColor=none;collapsible=0;fontSize=12;" parent="WVVUqtryo7cF9hxDMRjH-403" vertex="1">
          <mxGeometry y="30" width="205" height="129" as="geometry" />
        </mxCell>
        <mxCell id="WVVUqtryo7cF9hxDMRjH-414" value="" style="shape=tableRow;horizontal=0;startSize=0;swimlaneHead=0;swimlaneBody=0;fillColor=none;collapsible=0;dropTarget=0;points=[[0,0.5],[1,0.5]];portConstraint=eastwest;top=0;left=0;right=0;bottom=0;fontSize=12;strokeWidth=1;" parent="WVVUqtryo7cF9hxDMRjH-413" vertex="1">
          <mxGeometry width="205" height="30" as="geometry" />
        </mxCell>
        <mxCell id="WVVUqtryo7cF9hxDMRjH-415" value="FK" style="shape=partialRectangle;connectable=0;fillColor=none;top=0;left=0;bottom=0;right=0;fontStyle=1;overflow=hidden;fontSize=12;strokeWidth=1;" parent="WVVUqtryo7cF9hxDMRjH-414" vertex="1">
          <mxGeometry width="30" height="30" as="geometry">
            <mxRectangle width="30" height="30" as="alternateBounds" />
          </mxGeometry>
        </mxCell>
        <mxCell id="WVVUqtryo7cF9hxDMRjH-416" value="Student Name" style="shape=partialRectangle;connectable=0;fillColor=none;top=0;left=0;bottom=0;right=0;align=left;spacingLeft=6;fontStyle=1;overflow=hidden;fontSize=12;strokeWidth=1;" parent="WVVUqtryo7cF9hxDMRjH-414" vertex="1">
          <mxGeometry x="30" width="175" height="30" as="geometry">
            <mxRectangle width="175" height="30" as="alternateBounds" />
          </mxGeometry>
        </mxCell>
        <mxCell id="WVVUqtryo7cF9hxDMRjH-421" value="" style="shape=tableRow;horizontal=0;startSize=0;swimlaneHead=0;swimlaneBody=0;fillColor=none;collapsible=0;dropTarget=0;points=[[0,0.5],[1,0.5]];portConstraint=eastwest;top=0;left=0;right=0;bottom=0;fontSize=12;strokeWidth=1;" parent="WVVUqtryo7cF9hxDMRjH-413" vertex="1">
          <mxGeometry y="30" width="205" height="30" as="geometry" />
        </mxCell>
        <mxCell id="WVVUqtryo7cF9hxDMRjH-422" value="FK" style="shape=partialRectangle;connectable=0;fillColor=none;top=0;left=0;bottom=0;right=0;fontStyle=1;overflow=hidden;fontSize=12;strokeWidth=1;" parent="WVVUqtryo7cF9hxDMRjH-421" vertex="1">
          <mxGeometry width="30" height="30" as="geometry">
            <mxRectangle width="30" height="30" as="alternateBounds" />
          </mxGeometry>
        </mxCell>
        <mxCell id="WVVUqtryo7cF9hxDMRjH-423" value="Activity Name" style="shape=partialRectangle;connectable=0;fillColor=none;top=0;left=0;bottom=0;right=0;align=left;spacingLeft=6;fontStyle=1;overflow=hidden;fontSize=12;strokeWidth=1;" parent="WVVUqtryo7cF9hxDMRjH-421" vertex="1">
          <mxGeometry x="30" width="175" height="30" as="geometry">
            <mxRectangle width="175" height="30" as="alternateBounds" />
          </mxGeometry>
        </mxCell>
        <mxCell id="WVVUqtryo7cF9hxDMRjH-428" value="" style="shape=tableRow;horizontal=0;startSize=0;swimlaneHead=0;swimlaneBody=0;fillColor=none;collapsible=0;dropTarget=0;points=[[0,0.5],[1,0.5]];portConstraint=eastwest;top=0;left=0;right=0;bottom=0;fontSize=12;strokeWidth=1;" parent="WVVUqtryo7cF9hxDMRjH-413" vertex="1">
          <mxGeometry y="60" width="205" height="30" as="geometry" />
        </mxCell>
        <mxCell id="WVVUqtryo7cF9hxDMRjH-429" value="" style="shape=partialRectangle;connectable=0;fillColor=none;top=0;left=0;bottom=0;right=0;editable=1;overflow=hidden;fontSize=12;strokeWidth=1;" parent="WVVUqtryo7cF9hxDMRjH-428" vertex="1">
          <mxGeometry width="30" height="30" as="geometry">
            <mxRectangle width="30" height="30" as="alternateBounds" />
          </mxGeometry>
        </mxCell>
        <mxCell id="WVVUqtryo7cF9hxDMRjH-430" value="No of Years" style="shape=partialRectangle;connectable=0;fillColor=none;top=0;left=0;bottom=0;right=0;align=left;spacingLeft=6;overflow=hidden;fontSize=12;strokeWidth=1;" parent="WVVUqtryo7cF9hxDMRjH-428" vertex="1">
          <mxGeometry x="30" width="175" height="30" as="geometry">
            <mxRectangle width="175" height="30" as="alternateBounds" />
          </mxGeometry>
        </mxCell>
        <mxCell id="WVVUqtryo7cF9hxDMRjH-432" value="" style="endArrow=ERmany;html=1;rounded=0;fontSize=12;targetPerimeterSpacing=0;strokeWidth=1;elbow=vertical;jumpStyle=line;startArrow=ERone;startFill=0;endFill=0;" parent="1" edge="1">
          <mxGeometry relative="1" as="geometry">
            <mxPoint x="-766" y="1966" as="sourcePoint" />
            <mxPoint x="-606" y="1966" as="targetPoint" />
          </mxGeometry>
        </mxCell>
        <mxCell id="WVVUqtryo7cF9hxDMRjH-437" value="1" style="edgeLabel;html=1;align=center;verticalAlign=middle;resizable=0;points=[];fontSize=12;" parent="WVVUqtryo7cF9hxDMRjH-432" vertex="1" connectable="0">
          <mxGeometry x="-0.9045" relative="1" as="geometry">
            <mxPoint x="2" y="10" as="offset" />
          </mxGeometry>
        </mxCell>
        <mxCell id="WVVUqtryo7cF9hxDMRjH-438" value="*" style="edgeLabel;html=1;align=center;verticalAlign=middle;resizable=0;points=[];fontSize=12;" parent="WVVUqtryo7cF9hxDMRjH-432" vertex="1" connectable="0">
          <mxGeometry x="0.8378" y="-1" relative="1" as="geometry">
            <mxPoint x="1" y="9" as="offset" />
          </mxGeometry>
        </mxCell>
        <mxCell id="WVVUqtryo7cF9hxDMRjH-433" value="" style="endArrow=ERmany;html=1;rounded=0;fontSize=12;targetPerimeterSpacing=0;strokeWidth=1;elbow=vertical;jumpStyle=line;startArrow=ERmany;startFill=0;endFill=0;" parent="1" source="WVVUqtryo7cF9hxDMRjH-413" target="WVVUqtryo7cF9hxDMRjH-390" edge="1">
          <mxGeometry relative="1" as="geometry">
            <mxPoint x="-545" y="2095" as="sourcePoint" />
            <mxPoint x="-385" y="2095" as="targetPoint" />
          </mxGeometry>
        </mxCell>
        <mxCell id="WVVUqtryo7cF9hxDMRjH-434" value="Associative Entity" style="edgeLabel;html=1;align=center;verticalAlign=middle;resizable=0;points=[];" parent="1" vertex="1" connectable="0">
          <mxGeometry x="-450.0026463199083" y="1884.0047225886528" as="geometry" />
        </mxCell>
        <mxCell id="WVVUqtryo7cF9hxDMRjH-435" value="Fixed Entity" style="edgeLabel;html=1;align=center;verticalAlign=middle;resizable=0;points=[];" parent="1" vertex="1" connectable="0">
          <mxGeometry x="-914.0026463199083" y="1879.0047225886528" as="geometry" />
        </mxCell>
        <mxCell id="WVVUqtryo7cF9hxDMRjH-436" value="Fixed Entity" style="edgeLabel;html=1;align=center;verticalAlign=middle;resizable=0;points=[];fontFamily=Times New Roman;fontColor=#6666FF;" parent="1" vertex="1" connectable="0">
          <mxGeometry x="3035.9973536800917" y="-310.99527741134716" as="geometry" />
        </mxCell>
        <mxCell id="WVVUqtryo7cF9hxDMRjH-440" value="*" style="edgeLabel;html=1;align=center;verticalAlign=middle;resizable=0;points=[];fontSize=12;" parent="1" vertex="1" connectable="0">
          <mxGeometry x="-597.9896907216494" y="1996" as="geometry">
            <mxPoint x="102" y="65" as="offset" />
          </mxGeometry>
        </mxCell>
        <mxCell id="WVVUqtryo7cF9hxDMRjH-441" value="Fixed Entity" style="edgeLabel;html=1;align=center;verticalAlign=middle;resizable=0;points=[];" parent="1" vertex="1" connectable="0">
          <mxGeometry x="-444.0026463199083" y="2170.004722588653" as="geometry" />
        </mxCell>
        <mxCell id="p2-XoNAt0ySSqVjpRV2R-2" value="STUDENT" style="whiteSpace=wrap;html=1;align=center;fillColor=#ffe6cc;strokeColor=#d79b00;fontFamily=Georgia;fontStyle=1" vertex="1" parent="1">
          <mxGeometry x="2673" y="-140" width="100" height="40" as="geometry" />
        </mxCell>
        <mxCell id="p2-XoNAt0ySSqVjpRV2R-3" value="SCHOOL" style="whiteSpace=wrap;html=1;align=center;fillColor=#ffe6cc;strokeColor=#d79b00;fontFamily=Georgia;fontStyle=1" vertex="1" parent="1">
          <mxGeometry x="2963" y="-302" width="100" height="40" as="geometry" />
        </mxCell>
        <mxCell id="p2-XoNAt0ySSqVjpRV2R-4" value="CLUB" style="rounded=1;arcSize=10;whiteSpace=wrap;html=1;align=center;fillColor=#ffe6cc;strokeColor=#d79b00;fontFamily=Georgia;fontStyle=1" vertex="1" parent="1">
          <mxGeometry x="2963" y="-140" width="100" height="40" as="geometry" />
        </mxCell>
        <mxCell id="p2-XoNAt0ySSqVjpRV2R-5" value="" style="endArrow=ERoneToMany;html=1;rounded=0;entryX=0;entryY=0.5;entryDx=0;entryDy=0;startArrow=ERmandOne;startFill=0;endFill=0;exitX=0;exitY=0.5;exitDx=0;exitDy=0;" edge="1" parent="1" source="p2-XoNAt0ySSqVjpRV2R-3">
          <mxGeometry width="50" height="50" relative="1" as="geometry">
            <mxPoint x="2718" y="-356" as="sourcePoint" />
            <mxPoint x="2723" y="-140" as="targetPoint" />
            <Array as="points">
              <mxPoint x="2723" y="-282" />
            </Array>
          </mxGeometry>
        </mxCell>
        <mxCell id="p2-XoNAt0ySSqVjpRV2R-22" value="Attends" style="edgeLabel;html=1;align=center;verticalAlign=middle;resizable=0;points=[];fontSize=11;fontFamily=Georgia;" vertex="1" connectable="0" parent="p2-XoNAt0ySSqVjpRV2R-5">
          <mxGeometry x="0.1242" y="1" relative="1" as="geometry">
            <mxPoint x="-5" y="10" as="offset" />
          </mxGeometry>
        </mxCell>
        <mxCell id="p2-XoNAt0ySSqVjpRV2R-6" value="" style="endArrow=ERzeroToOne;html=1;rounded=0;exitX=1;exitY=0.5;exitDx=0;exitDy=0;startArrow=ERoneToMany;startFill=0;endFill=0;" edge="1" parent="1" source="p2-XoNAt0ySSqVjpRV2R-2" target="p2-XoNAt0ySSqVjpRV2R-4">
          <mxGeometry width="50" height="50" relative="1" as="geometry">
            <mxPoint x="2848" y="-68" as="sourcePoint" />
            <mxPoint x="2898" y="-118" as="targetPoint" />
          </mxGeometry>
        </mxCell>
        <mxCell id="p2-XoNAt0ySSqVjpRV2R-12" value="Belongs to" style="edgeLabel;html=1;align=center;verticalAlign=middle;resizable=0;points=[];fontFamily=Georgia;fontSize=11;" vertex="1" connectable="0" parent="p2-XoNAt0ySSqVjpRV2R-6">
          <mxGeometry x="-0.1215" y="-2" relative="1" as="geometry">
            <mxPoint x="-25" y="18" as="offset" />
          </mxGeometry>
        </mxCell>
        <mxCell id="p2-XoNAt0ySSqVjpRV2R-10" value="" style="endArrow=ERmandOne;html=1;rounded=0;entryX=0.5;entryY=1;entryDx=0;entryDy=0;startArrow=ERzeroToMany;startFill=0;endFill=0;" edge="1" parent="1" source="p2-XoNAt0ySSqVjpRV2R-4" target="p2-XoNAt0ySSqVjpRV2R-3">
          <mxGeometry width="50" height="50" relative="1" as="geometry">
            <mxPoint x="2968" y="29" as="sourcePoint" />
            <mxPoint x="3018" y="-21" as="targetPoint" />
          </mxGeometry>
        </mxCell>
        <mxCell id="p2-XoNAt0ySSqVjpRV2R-11" value="Is&amp;nbsp;&lt;br style=&quot;font-size: 11px;&quot;&gt;Located&amp;nbsp;&lt;br style=&quot;font-size: 11px;&quot;&gt;In" style="edgeLabel;html=1;align=center;verticalAlign=middle;resizable=0;points=[];fontFamily=Georgia;fontSize=11;" vertex="1" connectable="0" parent="p2-XoNAt0ySSqVjpRV2R-10">
          <mxGeometry x="0.1652" relative="1" as="geometry">
            <mxPoint x="23" y="23" as="offset" />
          </mxGeometry>
        </mxCell>
        <mxCell id="p2-XoNAt0ySSqVjpRV2R-14" value="Associative Entity" style="edgeLabel;html=1;align=center;verticalAlign=middle;resizable=0;points=[];fontFamily=Times New Roman;fontColor=#6666FF;" vertex="1" connectable="0" parent="1">
          <mxGeometry x="3012.9973536800917" y="-92.99527741134716" as="geometry" />
        </mxCell>
        <mxCell id="p2-XoNAt0ySSqVjpRV2R-17" value="Fixed Entity" style="edgeLabel;html=1;align=center;verticalAlign=middle;resizable=0;points=[];fontFamily=Times New Roman;fontColor=#6666FF;" vertex="1" connectable="0" parent="1">
          <mxGeometry x="2701.9973536800917" y="-92.99527741134716" as="geometry" />
        </mxCell>
      </root>
    </mxGraphModel>
  </diagram>
</mxfile>
